<svg width="141" height="41" viewBox="0 0 141 41" fill="none" xmlns="http://www.w3.org/2000/svg">
<path d="M140.299 36.8196C140.299 39.0348 138.496 40.8292 136.267 40.8292H4.33551C2.10736 40.8292 0.298767 39.0348 0.298767 36.8196V4.84409C0.298767 2.62989 2.10736 0.829224 4.33551 0.829224H136.266C138.496 0.829224 140.298 2.62989 140.298 4.84409L140.299 36.8196Z" fill="black"/>
<path d="M29.5367 19.7233C29.5077 16.5003 32.1757 14.9323 32.2977 14.8593C30.7867 12.6563 28.4447 12.3553 27.6217 12.3313C25.6547 12.1243 23.7467 13.5083 22.7447 13.5083C21.7227 13.5083 20.1797 12.3513 18.5167 12.3853C16.3767 12.4183 14.3747 13.6573 13.2767 15.5813C11.0107 19.5043 12.7007 25.2693 14.8717 28.4403C15.9577 29.9933 17.2267 31.7273 18.8877 31.6663C20.5127 31.5993 21.1197 30.6303 23.0807 30.6303C25.0237 30.6303 25.5937 31.6663 27.2877 31.6273C29.0317 31.5993 30.1297 30.0673 31.1777 28.5003C32.4327 26.7203 32.9367 24.9673 32.9567 24.8773C32.9157 24.8633 29.5697 23.5863 29.5367 19.7233Z" fill="white"/>
<path d="M26.3368 10.2452C27.2108 9.15225 27.8088 7.66525 27.6428 6.15625C26.3778 6.21225 24.7958 7.03125 23.8848 8.10025C23.0788 9.04225 22.3588 10.5862 22.5448 12.0382C23.9658 12.1442 25.4248 11.3212 26.3368 10.2452Z" fill="white"/>
<path d="M53.0538 31.4431H50.7828L49.5388 27.5341H45.2148L44.0298 31.4431H41.8188L46.1028 18.1351H48.7488L53.0538 31.4431ZM49.1638 25.8941L48.0388 22.4191C47.9198 22.0641 47.6968 21.2281 47.3678 19.9121H47.3278C47.1968 20.4781 46.9858 21.3141 46.6958 22.4191L45.5908 25.8941H49.1638Z" fill="white"/>
<path d="M64.0708 26.5271C64.0708 28.1591 63.6298 29.4491 62.7478 30.3961C61.9578 31.2391 60.9768 31.6601 59.8058 31.6601C58.5418 31.6601 57.6338 31.2061 57.0808 30.2981H57.0408V35.3531H54.9088V25.0061C54.9088 23.9801 54.8818 22.9271 54.8298 21.8471H56.7048L56.8238 23.3681H56.8638C57.5748 22.2221 58.6538 21.6501 60.1018 21.6501C61.2338 21.6501 62.1788 22.0971 62.9348 22.9921C63.6928 23.8881 64.0708 25.0661 64.0708 26.5271ZM61.8988 26.6051C61.8988 25.6711 61.6888 24.9011 61.2668 24.2951C60.8058 23.6631 60.1868 23.3471 59.4108 23.3471C58.8848 23.3471 58.4068 23.5231 57.9798 23.8701C57.5518 24.2201 57.2718 24.6771 57.1408 25.2431C57.0748 25.5071 57.0418 25.7231 57.0418 25.8931V27.4931C57.0418 28.1911 57.2558 28.7801 57.6838 29.2611C58.1118 29.7421 58.6678 29.9821 59.3518 29.9821C60.1548 29.9821 60.7798 29.6721 61.2268 29.0541C61.6748 28.4351 61.8988 27.6191 61.8988 26.6051Z" fill="white"/>
<path d="M75.1078 26.5271C75.1078 28.1591 74.6668 29.4491 73.7838 30.3961C72.9948 31.2391 72.0138 31.6601 70.8428 31.6601C69.5788 31.6601 68.6708 31.2061 68.1188 30.2981H68.0788V35.3531H65.9468V25.0061C65.9468 23.9801 65.9198 22.9271 65.8678 21.8471H67.7428L67.8618 23.3681H67.9018C68.6118 22.2221 69.6908 21.6501 71.1398 21.6501C72.2708 21.6501 73.2158 22.0971 73.9738 22.9921C74.7288 23.8881 75.1078 25.0661 75.1078 26.5271ZM72.9358 26.6051C72.9358 25.6711 72.7248 24.9011 72.3028 24.2951C71.8418 23.6631 71.2248 23.3471 70.4478 23.3471C69.9208 23.3471 69.4438 23.5231 69.0158 23.8701C68.5878 24.2201 68.3088 24.6771 68.1778 25.2431C68.1128 25.5071 68.0788 25.7231 68.0788 25.8931V27.4931C68.0788 28.1911 68.2928 28.7801 68.7188 29.2611C69.1468 29.7411 69.7028 29.9821 70.3888 29.9821C71.1918 29.9821 71.8168 29.6721 72.2638 29.0541C72.7118 28.4351 72.9358 27.6191 72.9358 26.6051Z" fill="white"/>
<path d="M87.4477 27.7112C87.4477 28.8432 87.0547 29.7642 86.2657 30.4752C85.3987 31.2522 84.1917 31.6402 82.6407 31.6402C81.2087 31.6402 80.0607 31.3642 79.1917 30.8112L79.6857 29.0342C80.6217 29.6002 81.6487 29.8842 82.7677 29.8842C83.5707 29.8842 84.1957 29.7022 84.6447 29.3402C85.0917 28.9782 85.3147 28.4922 85.3147 27.8862C85.3147 27.3462 85.1307 26.8912 84.7617 26.5222C84.3947 26.1532 83.7817 25.8102 82.9257 25.4932C80.5957 24.6242 79.4317 23.3512 79.4317 21.6772C79.4317 20.5832 79.8397 19.6862 80.6567 18.9882C81.4707 18.2892 82.5567 17.9402 83.9147 17.9402C85.1257 17.9402 86.1317 18.1512 86.9347 18.5722L86.4017 20.3102C85.6517 19.9022 84.8037 19.6982 83.8547 19.6982C83.1047 19.6982 82.5187 19.8832 82.0987 20.2512C81.7437 20.5802 81.5657 20.9812 81.5657 21.4562C81.5657 21.9822 81.7687 22.4172 82.1767 22.7592C82.5317 23.0752 83.1767 23.4172 84.1127 23.7862C85.2577 24.2472 86.0987 24.7862 86.6397 25.4042C87.1787 26.0202 87.4477 26.7912 87.4477 27.7112Z" fill="white"/>
<path d="M94.4968 23.4472H92.1468V28.1062C92.1468 29.2912 92.5608 29.8832 93.3908 29.8832C93.7718 29.8832 94.0878 29.8502 94.3378 29.7842L94.3968 31.4032C93.9768 31.5602 93.4238 31.6392 92.7388 31.6392C91.8968 31.6392 91.2388 31.3822 90.7638 30.8692C90.2908 30.3552 90.0528 29.4932 90.0528 28.2822V23.4452H88.6528V21.8452H90.0528V20.0882L92.1468 19.4562V21.8452H94.4968V23.4472Z" fill="white"/>
<path d="M105.1 26.5662C105.1 28.0412 104.678 29.2522 103.836 30.1992C102.953 31.1742 101.781 31.6602 100.32 31.6602C98.9117 31.6602 97.7907 31.1932 96.9547 30.2592C96.1187 29.3252 95.7007 28.1462 95.7007 26.7252C95.7007 25.2382 96.1307 24.0202 96.9937 23.0732C97.8547 22.1252 99.0167 21.6512 100.478 21.6512C101.886 21.6512 103.019 22.1182 103.874 23.0532C104.692 23.9602 105.1 25.1312 105.1 26.5662ZM102.888 26.6352C102.888 25.7502 102.699 24.9912 102.316 24.3582C101.869 23.5922 101.23 23.2102 100.402 23.2102C99.5447 23.2102 98.8937 23.5932 98.4467 24.3582C98.0637 24.9922 97.8747 25.7632 97.8747 26.6752C97.8747 27.5602 98.0637 28.3192 98.4467 28.9512C98.9077 29.7172 99.5517 30.0992 100.383 30.0992C101.197 30.0992 101.836 29.7092 102.297 28.9312C102.69 28.2862 102.888 27.5192 102.888 26.6352Z" fill="white"/>
<path d="M112.03 23.7221C111.819 23.6831 111.594 23.6631 111.358 23.6631C110.608 23.6631 110.028 23.9461 109.62 24.5131C109.265 25.0131 109.087 25.6451 109.087 26.4081V31.4431H106.956L106.976 24.8691C106.976 23.7631 106.949 22.7561 106.896 21.8481H108.753L108.831 23.6841H108.89C109.115 23.0531 109.47 22.5451 109.956 22.1641C110.431 21.8211 110.944 21.6501 111.497 21.6501C111.694 21.6501 111.872 21.6641 112.03 21.6891V23.7221Z" fill="white"/>
<path d="M121.565 26.1912C121.565 26.5732 121.54 26.8952 121.487 27.1582H115.091C115.116 28.1062 115.425 28.8312 116.019 29.3312C116.558 29.7782 117.255 30.0022 118.111 30.0022C119.058 30.0022 119.922 29.8512 120.699 29.5482L121.033 31.0282C120.125 31.4242 119.053 31.6212 117.816 31.6212C116.328 31.6212 115.16 31.1832 114.31 30.3082C113.462 29.4332 113.037 28.2582 113.037 26.7842C113.037 25.3372 113.432 24.1322 114.223 23.1712C115.051 22.1452 116.17 21.6322 117.578 21.6322C118.961 21.6322 120.008 22.1452 120.719 23.1712C121.282 23.9862 121.565 24.9942 121.565 26.1912ZM119.532 25.6382C119.546 25.0062 119.407 24.4602 119.118 23.9992C118.749 23.4062 118.182 23.1102 117.419 23.1102C116.722 23.1102 116.155 23.3992 115.722 23.9792C115.367 24.4402 115.156 24.9932 115.091 25.6372L119.532 25.6382Z" fill="white"/>
<path d="M48.4587 9.94828C48.4587 11.1253 48.1057 12.0113 47.4007 12.6063C46.7477 13.1553 45.8197 13.4303 44.6177 13.4303C44.0217 13.4303 43.5117 13.4043 43.0847 13.3523V6.92128C43.6417 6.83128 44.2417 6.78528 44.8897 6.78528C46.0347 6.78528 46.8977 7.03428 47.4797 7.53228C48.1317 8.09528 48.4587 8.90028 48.4587 9.94828ZM47.3537 9.97728C47.3537 9.21428 47.1517 8.62928 46.7477 8.22128C46.3437 7.81428 45.7537 7.61028 44.9767 7.61028C44.6467 7.61028 44.3657 7.63228 44.1327 7.67828V12.5673C44.2617 12.5873 44.4977 12.5963 44.8407 12.5963C45.6427 12.5963 46.2618 12.3733 46.6978 11.9273C47.1338 11.4813 47.3537 10.8313 47.3537 9.97728Z" fill="white"/>
<path d="M54.3177 10.9763C54.3177 11.7013 54.1107 12.2953 53.6967 12.7613C53.2627 13.2403 52.6877 13.4793 51.9697 13.4793C51.2777 13.4793 50.7267 13.2503 50.3157 12.7903C49.9057 12.3313 49.7007 11.7523 49.7007 11.0543C49.7007 10.3243 49.9117 9.72526 50.3357 9.26026C50.7597 8.79526 51.3297 8.56226 52.0477 8.56226C52.7397 8.56226 53.2957 8.79126 53.7167 9.25026C54.1167 9.69626 54.3177 10.2723 54.3177 10.9763ZM53.2307 11.0103C53.2307 10.5753 53.1367 10.2023 52.9497 9.89126C52.7297 9.51526 52.4167 9.32726 52.0097 9.32726C51.5887 9.32726 51.2687 9.51526 51.0487 9.89126C50.8607 10.2023 50.7677 10.5813 50.7677 11.0293C50.7677 11.4643 50.8617 11.8373 51.0487 12.1483C51.2757 12.5243 51.5917 12.7123 51.9997 12.7123C52.3997 12.7123 52.7137 12.5213 52.9397 12.1383C53.1337 11.8213 53.2307 11.4453 53.2307 11.0103Z" fill="white"/>
<path d="M62.1737 8.6582L60.6987 13.3722H59.7388L59.1278 11.3252C58.9728 10.8142 58.8467 10.3062 58.7487 9.8022H58.7297C58.6387 10.3202 58.5127 10.8272 58.3507 11.3252L57.7017 13.3722H56.7307L55.3438 8.6582H56.4207L56.9537 10.8992C57.0827 11.4292 57.1888 11.9342 57.2738 12.4122H57.2927C57.3707 12.0182 57.4997 11.5162 57.6817 10.9092L58.3507 8.6592H59.2048L59.8457 10.8612C60.0007 11.3982 60.1267 11.9152 60.2237 12.4132H60.2528C60.3238 11.9282 60.4308 11.4112 60.5728 10.8612L61.1447 8.6592H62.1737V8.6582Z" fill="white"/>
<path d="M67.6068 13.3722H66.5588V10.6722C66.5588 9.8402 66.2428 9.4242 65.6088 9.4242C65.2978 9.4242 65.0468 9.5382 64.8518 9.7672C64.6588 9.9962 64.5608 10.2662 64.5608 10.5752V13.3712H63.5128V10.0052C63.5128 9.5912 63.4998 9.1422 63.4748 8.6562H64.3958L64.4448 9.3932H64.4738C64.5958 9.1642 64.7778 8.9752 65.0168 8.8242C65.3008 8.6482 65.6188 8.5592 65.9668 8.5592C66.4068 8.5592 66.7728 8.7012 67.0638 8.9862C67.4258 9.3352 67.6068 9.8562 67.6068 10.5482V13.3722Z" fill="white"/>
<path d="M70.4967 13.3722H69.4497V6.49524H70.4967V13.3722Z" fill="white"/>
<path d="M76.6667 10.9763C76.6667 11.7013 76.4597 12.2953 76.0457 12.7613C75.6117 13.2403 75.0357 13.4793 74.3187 13.4793C73.6257 13.4793 73.0747 13.2503 72.6647 12.7903C72.2547 12.3313 72.0497 11.7523 72.0497 11.0543C72.0497 10.3243 72.2607 9.72526 72.6847 9.26026C73.1087 8.79526 73.6787 8.56226 74.3957 8.56226C75.0887 8.56226 75.6437 8.79126 76.0657 9.25026C76.4657 9.69626 76.6667 10.2723 76.6667 10.9763ZM75.5787 11.0103C75.5787 10.5753 75.4847 10.2023 75.2977 9.89126C75.0787 9.51526 74.7647 9.32726 74.3587 9.32726C73.9367 9.32726 73.6167 9.51526 73.3977 9.89126C73.2097 10.2023 73.1167 10.5813 73.1167 11.0293C73.1167 11.4643 73.2107 11.8373 73.3977 12.1483C73.6247 12.5243 73.9407 12.7123 74.3487 12.7123C74.7487 12.7123 75.0617 12.5213 75.2877 12.1383C75.4827 11.8213 75.5787 11.4453 75.5787 11.0103Z" fill="white"/>
<path d="M81.7387 13.3723H80.7977L80.7197 12.8293H80.6907C80.3687 13.2623 79.9097 13.4793 79.3137 13.4793C78.8687 13.4793 78.5087 13.3363 78.2377 13.0523C77.9917 12.7943 77.8687 12.4733 77.8687 12.0923C77.8687 11.5163 78.1087 11.0773 78.5917 10.7733C79.0737 10.4693 79.7517 10.3203 80.6247 10.3273V10.2393C80.6247 9.61826 80.2987 9.30826 79.6457 9.30826C79.1807 9.30826 78.7707 9.42526 78.4167 9.65726L78.2037 8.96926C78.6417 8.69826 79.1827 8.56226 79.8207 8.56226C81.0527 8.56226 81.6707 9.21226 81.6707 10.5123V12.2483C81.6707 12.7193 81.6937 13.0943 81.7387 13.3723ZM80.6507 11.7523V11.0253C79.4947 11.0053 78.9167 11.3223 78.9167 11.9753C78.9167 12.2213 78.9827 12.4053 79.1177 12.5283C79.2527 12.6513 79.4247 12.7123 79.6297 12.7123C79.8597 12.7123 80.0747 12.6393 80.2707 12.4943C80.4677 12.3483 80.5887 12.1633 80.6337 11.9363C80.6447 11.8853 80.6507 11.8233 80.6507 11.7523Z" fill="white"/>
<path d="M87.6938 13.3722H86.7638L86.7148 12.6152H86.6858C86.3888 13.1912 85.8828 13.4792 85.1718 13.4792C84.6038 13.4792 84.1308 13.2562 83.7558 12.8102C83.3808 12.3642 83.1938 11.7852 83.1938 11.0742C83.1938 10.3112 83.3968 9.69324 83.8048 9.22124C84.1998 8.78124 84.6838 8.56124 85.2598 8.56124C85.8928 8.56124 86.3358 8.77424 86.5878 9.20124H86.6077V6.49524H87.6568V12.1022C87.6568 12.5612 87.6688 12.9842 87.6938 13.3722ZM86.6077 11.3842V10.5982C86.6077 10.4622 86.5978 10.3522 86.5788 10.2682C86.5198 10.0162 86.3928 9.80424 86.1998 9.63324C86.0048 9.46224 85.7697 9.37624 85.4987 9.37624C85.1077 9.37624 84.8018 9.53124 84.5768 9.84224C84.3538 10.1532 84.2408 10.5502 84.2408 11.0352C84.2408 11.5012 84.3478 11.8792 84.5628 12.1702C84.7898 12.4802 85.0958 12.6352 85.4788 12.6352C85.8228 12.6352 86.0978 12.5062 86.3068 12.2472C86.5088 12.0082 86.6077 11.7202 86.6077 11.3842Z" fill="white"/>
<path d="M96.6567 10.9763C96.6567 11.7013 96.4497 12.2953 96.0357 12.7613C95.6017 13.2403 95.0277 13.4793 94.3087 13.4793C93.6177 13.4793 93.0667 13.2503 92.6547 12.7903C92.2447 12.3313 92.0397 11.7523 92.0397 11.0543C92.0397 10.3243 92.2507 9.72526 92.6747 9.26026C93.0987 8.79526 93.6687 8.56226 94.3877 8.56226C95.0787 8.56226 95.6357 8.79126 96.0557 9.25026C96.4557 9.69626 96.6567 10.2723 96.6567 10.9763ZM95.5707 11.0103C95.5707 10.5753 95.4767 10.2023 95.2897 9.89126C95.0687 9.51526 94.7567 9.32726 94.3487 9.32726C93.9287 9.32726 93.6087 9.51526 93.3877 9.89126C93.1997 10.2023 93.1067 10.5813 93.1067 11.0293C93.1067 11.4643 93.2007 11.8373 93.3877 12.1483C93.6147 12.5243 93.9307 12.7123 94.3387 12.7123C94.7387 12.7123 95.0537 12.5213 95.2797 12.1383C95.4727 11.8213 95.5707 11.4453 95.5707 11.0103Z" fill="white"/>
<path d="M102.292 13.3722H101.245V10.6722C101.245 9.8402 100.929 9.4242 100.294 9.4242C99.9827 9.4242 99.7317 9.5382 99.5377 9.7672C99.3437 9.9962 99.2467 10.2662 99.2467 10.5752V13.3712H98.1977V10.0052C98.1977 9.5912 98.1857 9.1422 98.1607 8.6562H99.0807L99.1297 9.3932H99.1587C99.2817 9.1642 99.4637 8.9752 99.7017 8.8242C99.9867 8.6482 100.304 8.5592 100.653 8.5592C101.092 8.5592 101.458 8.7012 101.749 8.9862C102.112 9.3352 102.292 9.8562 102.292 10.5482V13.3722Z" fill="white"/>
<path d="M109.345 9.44325H108.191V11.7333C108.191 12.3153 108.396 12.6063 108.802 12.6063C108.99 12.6063 109.146 12.5903 109.269 12.5573L109.296 13.3523C109.089 13.4303 108.817 13.4693 108.482 13.4693C108.068 13.4693 107.746 13.3433 107.513 13.0913C107.279 12.8393 107.163 12.4153 107.163 11.8203V9.44325H106.474V8.65825H107.163V7.79425L108.19 7.48425V8.65725H109.344L109.345 9.44325Z" fill="white"/>
<path d="M114.893 13.3722H113.844V10.6922C113.844 9.84724 113.528 9.42424 112.895 9.42424C112.409 9.42424 112.077 9.66924 111.895 10.1592C111.864 10.2622 111.846 10.3882 111.846 10.5362V13.3712H110.799V6.49524H111.846V9.33624H111.866C112.196 8.81924 112.669 8.56124 113.282 8.56124C113.716 8.56124 114.075 8.70324 114.36 8.98824C114.715 9.34324 114.893 9.87124 114.893 10.5692V13.3722Z" fill="white"/>
<path d="M120.616 10.7922C120.616 10.9802 120.602 11.1382 120.577 11.2672H117.434C117.448 11.7332 117.598 12.0882 117.889 12.3342C118.155 12.5542 118.498 12.6642 118.918 12.6642C119.383 12.6642 119.807 12.5902 120.189 12.4412L120.353 13.1692C119.906 13.3632 119.38 13.4602 118.771 13.4602C118.041 13.4602 117.466 13.2452 117.05 12.8152C116.632 12.3852 116.425 11.8082 116.425 11.0842C116.425 10.3732 116.618 9.78122 117.007 9.30922C117.413 8.80522 117.962 8.55322 118.655 8.55322C119.333 8.55322 119.848 8.80522 120.196 9.30922C120.477 9.70922 120.616 10.2042 120.616 10.7922ZM119.616 10.5212C119.624 10.2102 119.555 9.94222 119.413 9.71622C119.231 9.42522 118.954 9.27922 118.579 9.27922C118.237 9.27922 117.958 9.42122 117.745 9.70622C117.571 9.93322 117.468 10.2042 117.434 10.5212H119.616Z" fill="white"/>
</svg>
