<svg viewBox="0 0 24 14" fill="none" xmlns="http://www.w3.org/2000/svg">
<g clip-path="url(#clip0)">
<path d="M24 7.994C21.411 11.615 17.003 14.001 12 14.001C6.997 14.001 2.59 11.616 0 7.994V6.007C2.59 2.385 6.997 0 12 0C17.003 0 21.411 2.385 24 6.007V7.994ZM22.252 7C19.88 3.797 16 2 12 2C8.001 2 4.12 3.797 1.749 7C4.12 10.204 8.001 12.001 12 12.001C16 12.001 19.88 10.204 22.252 7Z" />
<path d="M12 2C14.762 2 17.001 4.239 17.001 7C17.001 9.762 14.762 12 12 12C9.239 12 7 9.762 7 7C7 4.239 9.239 2 12 2ZM12 4C13.658 4 15.001 5.343 15.001 7C15.001 8.657 13.658 10 12 10C10.343 10 9 8.657 9 7C9 5.343 10.343 4 12 4Z" />
</g>
<defs>
<clipPath id="clip0">
<rect fill="white"/>
</clipPath>
</defs>
</svg>
