<svg width="141" height="41" viewBox="0 0 141 41" fill="none" xmlns="http://www.w3.org/2000/svg">
<path d="M134.847 40.0052H5.2172C2.36664 40.0052 0.0320129 37.754 0.0320129 35.0052V5.00525C0.0320129 2.2565 2.36664 0.00525114 5.2172 0.00525114H134.847C137.697 0.00525114 140.032 2.2565 140.032 5.00525V35.0052C140.032 37.754 137.697 40.0052 134.847 40.0052Z" fill="black"/>
<path d="M49.563 10.525C49.563 11.3523 49.3124 12.0149 48.8187 12.509C48.2511 13.0947 47.5118 13.3895 46.6059 13.3895C45.7401 13.3895 45.0008 13.0898 44.3944 12.4991C43.7867 11.8997 43.4834 11.1641 43.4834 10.2836C43.4834 9.40304 43.7867 8.66742 44.3944 8.07298C45.0008 7.47731 45.7401 7.17761 46.6059 7.17761C47.0369 7.17761 47.4479 7.26554 47.8401 7.42901C48.231 7.59372 48.5493 7.81663 48.7798 8.09156L48.2561 8.61417C47.8539 8.14481 47.3063 7.91323 46.6059 7.91323C45.9744 7.91323 45.4268 8.13119 44.962 8.57083C44.5021 9.0117 44.2716 9.58261 44.2716 10.2836C44.2716 10.9845 44.5021 11.5604 44.962 12.0012C45.4268 12.4359 45.9744 12.6588 46.6059 12.6588C47.2762 12.6588 47.8401 12.4359 48.2849 11.9963C48.5781 11.7052 48.7448 11.304 48.7886 10.7913H46.6059V10.0755H49.5178C49.5529 10.2303 49.563 10.3801 49.563 10.525Z" fill="white"/>
<path d="M54.1827 8.04327H51.4474V9.92565H53.9133V10.6415H51.4474V12.5238H54.1827V13.2533H50.6731V7.31384H54.1827V8.04327Z" fill="white"/>
<path d="M57.443 13.2533H56.6687V8.04327H54.9909V7.31384H59.122V8.04327H57.443V13.2533Z" fill="white"/>
<path d="M62.1116 13.2533V7.31384H62.8847V13.2533H62.1116Z" fill="white"/>
<path d="M66.3117 13.2533H65.5436V8.04327H63.8596V7.31384H67.9957V8.04327H66.3117V13.2533Z" fill="white"/>
<path d="M75.8169 12.4892C75.2242 13.0898 74.4899 13.3895 73.6141 13.3895C72.7332 13.3895 71.999 13.0898 71.4063 12.4892C70.8149 11.8898 70.5205 11.1542 70.5205 10.2836C70.5205 9.41295 70.8149 8.67733 71.4063 8.07794C71.999 7.47731 72.7332 7.17761 73.6141 7.17761C74.4849 7.17761 75.2192 7.47731 75.8118 8.08289C76.4083 8.68724 76.7027 9.4179 76.7027 10.2836C76.7027 11.1542 76.4083 11.8898 75.8169 12.4892ZM71.9789 11.9913C72.425 12.4359 72.9675 12.6588 73.6141 12.6588C74.2556 12.6588 74.8032 12.4359 75.2442 11.9913C75.689 11.5467 75.9146 10.9758 75.9146 10.2836C75.9146 9.59128 75.689 9.02037 75.2442 8.57578C74.8032 8.13119 74.2556 7.90828 73.6141 7.90828C72.9675 7.90828 72.425 8.13119 71.9789 8.57578C71.5341 9.02037 71.3086 9.59128 71.3086 10.2836C71.3086 10.9758 71.5341 11.5467 71.9789 11.9913Z" fill="white"/>
<path d="M77.7891 13.2533V7.31384H78.7288L81.6508 11.9331H81.6846L81.6508 10.7913V7.31384H82.4239V13.2533H81.6169L78.5571 8.40612H78.5233L78.5571 9.55289V13.2533H77.7891Z" fill="white"/>
<path d="M70.33 21.927C67.9756 21.927 66.0523 23.6979 66.0523 26.1413C66.0523 28.5648 67.9756 30.3543 70.33 30.3543C72.6894 30.3543 74.6127 28.5648 74.6127 26.1413C74.6127 23.6979 72.6894 21.927 70.33 21.927ZM70.33 28.6949C69.0382 28.6949 67.9268 27.641 67.9268 26.1413C67.9268 24.6217 69.0382 23.5864 70.33 23.5864C71.6218 23.5864 72.7383 24.6217 72.7383 26.1413C72.7383 27.641 71.6218 28.6949 70.33 28.6949ZM60.9965 21.927C58.6371 21.927 56.7188 23.6979 56.7188 26.1413C56.7188 28.5648 58.6371 30.3543 60.9965 30.3543C63.3546 30.3543 65.2742 28.5648 65.2742 26.1413C65.2742 23.6979 63.3546 21.927 60.9965 21.927ZM60.9965 28.6949C59.7034 28.6949 58.5882 27.641 58.5882 26.1413C58.5882 24.6217 59.7034 23.5864 60.9965 23.5864C62.2883 23.5864 63.3997 24.6217 63.3997 26.1413C63.3997 27.641 62.2883 28.6949 60.9965 28.6949ZM49.89 23.2186V25.0094H54.2166C54.09 26.01 53.7517 26.7456 53.233 27.2583C52.6015 27.8775 51.6179 28.5648 49.89 28.5648C47.2274 28.5648 45.1424 26.441 45.1424 23.8093C45.1424 21.1777 47.2274 19.0538 49.89 19.0538C51.3297 19.0538 52.3772 19.6099 53.1503 20.3306L54.4271 19.0687C53.3457 18.0482 51.9073 17.2643 49.89 17.2643C46.2388 17.2643 43.1702 20.2006 43.1702 23.8093C43.1702 27.4181 46.2388 30.3543 49.89 30.3543C51.8634 30.3543 53.3457 29.7153 54.511 28.5165C55.7051 27.3363 56.0772 25.6769 56.0772 24.3369C56.0772 23.9208 56.0422 23.5381 55.9795 23.2186H49.89ZM95.3059 24.6069C94.9538 23.6644 93.8674 21.927 91.6547 21.927C89.4619 21.927 87.6363 23.6347 87.6363 26.1413C87.6363 28.5017 89.4431 30.3543 91.8652 30.3543C93.8236 30.3543 94.9538 29.1741 95.4186 28.4868L93.9652 27.5295C93.4803 28.2305 92.8199 28.6949 91.8652 28.6949C90.9166 28.6949 90.2363 28.2651 89.8002 27.4181L95.5026 25.0861L95.3059 24.6069ZM89.492 26.01C89.4431 24.3852 90.7688 23.553 91.7186 23.553C92.4628 23.553 93.0943 23.9208 93.3048 24.4471L89.492 26.01ZM84.8572 30.098H86.7317V17.7139H84.8572V30.098ZM81.7874 22.8657H81.7247C81.3037 22.3728 80.5005 21.927 79.4831 21.927C77.348 21.927 75.3959 23.7796 75.3959 26.1549C75.3959 28.5165 77.348 30.3543 79.4831 30.3543C80.5005 30.3543 81.3037 29.9048 81.7247 29.3971H81.7874V30.0014C81.7874 31.6126 80.9165 32.4782 79.5119 32.4782C78.3667 32.4782 77.6563 31.6609 77.3631 30.9736L75.7329 31.646C76.2028 32.7631 77.447 34.1377 79.5119 34.1377C81.7097 34.1377 83.5641 32.8597 83.5641 29.75V22.1833H81.7874V22.8657ZM79.6435 28.6949C78.3517 28.6949 77.2703 27.6261 77.2703 26.1549C77.2703 24.67 78.3517 23.5864 79.6435 23.5864C80.9165 23.5864 81.9202 24.67 81.9202 26.1549C81.9202 27.6261 80.9165 28.6949 79.6435 28.6949ZM104.082 17.7139H99.5986V30.098H101.468V25.4057H104.082C106.158 25.4057 108.194 23.9208 108.194 21.5591C108.194 19.1987 106.153 17.7139 104.082 17.7139ZM104.131 23.683H101.468V19.4365H104.131C105.527 19.4365 106.323 20.582 106.323 21.5591C106.323 22.5177 105.527 23.683 104.131 23.683ZM115.687 21.9034C114.336 21.9034 112.932 22.4929 112.354 23.7994L114.013 24.4867C114.37 23.7994 115.027 23.5765 115.721 23.5765C116.691 23.5765 117.674 24.1524 117.689 25.1691V25.2991C117.351 25.106 116.627 24.8199 115.736 24.8199C113.949 24.8199 112.129 25.792 112.129 27.6063C112.129 29.2658 113.592 30.3345 115.237 30.3345C116.495 30.3345 117.189 29.7735 117.625 29.1209H117.689V30.0782H119.495V25.3276C119.495 23.1319 117.836 21.9034 115.687 21.9034ZM115.461 28.6899C114.85 28.6899 113.998 28.3902 113.998 27.641C113.998 26.6825 115.061 26.3146 115.98 26.3146C116.803 26.3146 117.189 26.4942 117.689 26.7308C117.543 27.8775 116.544 28.6899 115.461 28.6899ZM126.073 22.1746L123.924 27.5431H123.86L121.639 22.1746H119.623L122.961 29.6769L121.056 33.8516H123.009L128.153 22.1746H126.073ZM109.222 30.098H111.096V17.7139H109.222V30.098Z" fill="white"/>
<path d="M12.492 7.84486C12.1975 8.14951 12.0271 8.62382 12.0271 9.23808V31.1481C12.0271 31.7623 12.1975 32.2366 12.492 32.5413L12.5647 32.6082L24.9868 20.3355V20.0457L12.5647 7.77304L12.492 7.84486Z" fill="url(#paint0_linear)"/>
<path d="M29.1229 24.4285L24.9868 20.3355V20.0457L29.1279 15.9528L29.2206 16.006L34.1248 18.764C35.5244 19.5466 35.5244 20.8346 34.1248 21.6222L29.2206 24.3752L29.1229 24.4285V24.4285Z" fill="url(#paint1_linear)"/>
<path d="M29.2206 24.3752L24.9868 20.1906L12.492 32.5413C12.9568 33.0243 13.7149 33.0825 14.5769 32.5995L29.2206 24.3752" fill="url(#paint2_linear)"/>
<path d="M29.2206 16.0061L14.5769 7.78178C13.7149 7.30376 12.9568 7.36196 12.492 7.84494L24.9868 20.1907L29.2206 16.0061Z" fill="url(#paint3_linear)"/>
<defs>
<linearGradient id="paint0_linear" x1="23.8839" y1="31.3762" x2="7.25819" y2="14.5548" gradientUnits="userSpaceOnUse">
<stop stop-color="#00A0FF"/>
<stop offset="0.0066" stop-color="#00A1FF"/>
<stop offset="0.2601" stop-color="#00BEFF"/>
<stop offset="0.5122" stop-color="#00D2FF"/>
<stop offset="0.7604" stop-color="#00DFFF"/>
<stop offset="1" stop-color="#00E3FF"/>
</linearGradient>
<linearGradient id="paint1_linear" x1="35.9473" y1="20.1892" x2="11.6926" y2="20.1892" gradientUnits="userSpaceOnUse">
<stop stop-color="#FFE000"/>
<stop offset="0.4087" stop-color="#FFBD00"/>
<stop offset="0.7754" stop-color="#FFA500"/>
<stop offset="1" stop-color="#FF9C00"/>
</linearGradient>
<linearGradient id="paint2_linear" x1="26.9184" y1="17.9158" x2="4.37262" y2="-4.89537" gradientUnits="userSpaceOnUse">
<stop stop-color="#FF3A44"/>
<stop offset="1" stop-color="#C31162"/>
</linearGradient>
<linearGradient id="paint3_linear" x1="9.34677" y1="39.8307" x2="19.4145" y2="29.6446" gradientUnits="userSpaceOnUse">
<stop stop-color="#32A071"/>
<stop offset="0.0685" stop-color="#2DA771"/>
<stop offset="0.4762" stop-color="#15CF74"/>
<stop offset="0.8009" stop-color="#06E775"/>
<stop offset="1" stop-color="#00F076"/>
</linearGradient>
</defs>
</svg>
