<svg viewBox="0 0 284 32" xmlns="http://www.w3.org/2000/svg">
<path fill-rule="evenodd" clip-rule="evenodd" d="M169.514 25.732C172.306 27.39 175.168 28.295 178.43 28.314C180.582 28.327 184.697 27.462 184.752 24.702C184.815 21.544 180.807 20.507 178.267 20.261C173.873 19.835 168.92 18.238 169.128 12.996C169.318 8.221 174.367 6.463 178.423 6.463C181.62 6.463 183.884 7.149 186.764 8.439L185.285 11.754C182.856 10.666 181.122 10.106 178.423 10.106C176.587 10.106 172.853 10.69 172.756 13.138C172.643 16.009 176.407 16.398 178.58 16.648C183.253 17.184 188.492 19.247 188.38 24.773C188.278 29.825 182.777 31.968 178.416 31.942C174.481 31.918 171.036 30.863 167.664 28.862L169.514 25.732ZM124.6 19.219C124.6 14.33 128.005 10.214 133.05 10.214C135.734 10.214 137.974 11.397 139.477 13.242L142.277 10.632C140.057 8.161 136.821 6.647 133.05 6.647C125.861 6.647 120.686 12.095 120.686 19.219C120.686 26.385 125.82 31.79 133.05 31.79C136.844 31.79 140.08 30.286 142.293 27.819L139.493 25.209C137.996 27.051 135.758 28.224 133.05 28.224C127.962 28.224 124.6 24.146 124.6 19.219ZM74.06 10.595H81.906C84.676 10.595 86.304 12.195 86.304 14.411C86.304 16.731 84.674 18.013 81.906 18.013H74.06V10.595ZM74.06 27.149V21.372H80.59L86.764 31.34H91.37L84.884 20.956C88.209 20.16 90.149 17.597 90.149 14.273C90.149 9.451 86.672 7.097 82.148 7.097H70.25V22.878L74.06 27.149ZM117.687 19.219C117.687 12.109 112.452 6.647 105.289 6.647C98.1 6.647 92.925 12.095 92.925 19.219C92.925 26.385 98.058 31.79 105.289 31.79C112.494 31.79 117.687 26.37 117.687 19.219ZM96.838 19.219C96.838 14.33 100.243 10.214 105.289 10.214C110.307 10.214 113.774 14.348 113.774 19.219C113.774 24.128 110.35 28.224 105.289 28.224C100.2 28.224 96.838 24.146 96.838 19.219ZM150.475 31.34V19.703L161.903 31.34H167.099L154.076 18.18L165.298 7.097H160.414L150.475 17.002V7.097H146.665V31.34H150.475ZM189.693 10.595H197.693V31.34H201.502V10.595H209.537V7.097H189.693V10.595ZM235.291 19.219C235.291 12.111 230.054 6.647 222.893 6.647C215.705 6.647 210.529 12.097 210.529 19.219C210.529 26.383 215.665 31.79 222.893 31.79C230.094 31.79 235.291 26.367 235.291 19.219ZM214.443 19.219C214.443 14.332 217.848 10.214 222.893 10.214C227.908 10.214 231.377 14.35 231.377 19.219C231.377 24.127 227.952 28.224 222.893 28.224C217.807 28.224 214.443 24.143 214.443 19.219ZM243.059 31.34V13.712L256.842 31.34H260.063V7.097H256.323V24.656L242.643 7.097H239.319V31.34H243.059ZM283.22 31.34V27.842H269.332V20.153H280.277V16.655H269.332V10.595H282.77V7.097H265.523V31.34H283.22ZM0 31.34L15.96 15.684L22.321 17.654L32.246 6.294L42.829 0L55.703 18.694L60.234 15.615L74.259 31.34H69.698L59.404 20.109L47.205 25.594L46.817 24.733L53.004 20.528L47.092 11.827L42.83 15.804L39.403 14.973L36.819 12.07L26.857 16.61L20.429 23.177L19.701 23.039L19.959 20.054L16.718 19.213L0.924 31.34H0ZM13.857 31.214L31.794 26.218L34.502 26.642L40.782 31.34H46.24L33.998 21.847L11.969 31.34L13.857 31.214Z"/>
</svg>
