<svg viewBox="0 0 48 48" fill="none" xmlns="http://www.w3.org/2000/svg">
<path d="M24 0C37.255 0 48 10.745 48 24C48 37.255 37.255 48 24 48C10.745 48 0 37.255 0 24C0 10.745 10.745 0 24 0ZM26.73 29.926C28.104 29.612 29.428 29.069 30.648 28.303C31.571 27.721 31.85 26.5 31.268 25.577C30.686 24.652 29.467 24.373 28.542 24.955C25.778 26.693 22.22 26.692 19.458 24.955C18.533 24.373 17.313 24.652 16.732 25.577C16.151 26.501 16.428 27.721 17.351 28.303C18.571 29.068 19.896 29.612 21.27 29.926L17.497 33.698C16.726 34.469 16.726 35.721 17.498 36.493C17.885 36.878 18.39 37.072 18.896 37.072C19.401 37.072 19.908 36.878 20.294 36.493L23.999 32.786L27.708 36.493C28.479 37.265 29.73 37.265 30.502 36.493C31.275 35.721 31.275 34.469 30.502 33.698L26.73 29.926ZM24 24.421C27.722 24.421 30.747 21.396 30.747 17.676C30.747 13.955 27.722 10.928 24 10.928C20.279 10.928 17.253 13.955 17.253 17.676C17.253 21.396 20.279 24.421 24 24.421ZM24 14.882C25.541 14.882 26.794 16.135 26.794 17.676C26.794 19.215 25.541 20.469 24 20.469C22.461 20.469 21.207 19.215 21.207 17.676C21.207 16.135 22.461 14.882 24 14.882Z" />
</svg>
