<svg viewBox="0 0 462 462" xmlns="http://www.w3.org/2000/svg">
<path fill-rule="evenodd" clip-rule="evenodd" d="M231.439 1.17194C231.778 0.942688 232.222 0.942688 232.561 1.17194L419.625 127.829C419.899 128.015 420.064 128.325 420.064 128.657V188.65L462.707 231.293C463.098 231.683 463.098 232.317 462.707 232.707L420.064 275.35V334.796C420.064 335.128 419.899 335.438 419.625 335.624L234.332 461.082L232.707 462.707C232.317 463.098 231.683 463.098 231.293 462.707L229.669 461.083L44.3754 335.624C44.1006 335.438 43.936 335.128 43.936 334.796V275.35L1.29297 232.707C1.10535 232.52 1 232.265 1 232C1 231.735 1.10535 231.48 1.29297 231.293L43.936 188.65V128.657C43.936 128.325 44.1006 128.015 44.3754 127.829L231.439 1.17194ZM43.936 191.478L3.41418 232L43.936 272.522V191.478ZM45.936 189.478L100.481 134.933C57.9222 192.448 57.9225 271.555 100.483 329.069L45.936 274.522V189.478ZM45.936 277.35V334.265L222.189 453.603L45.936 277.35ZM241.812 453.602L418.064 334.265V277.35L241.812 453.602ZM420.064 272.522L460.586 232L420.064 191.478V272.522ZM418.064 189.478V274.522L363.516 329.069C406.077 271.556 406.078 192.448 363.519 134.933L418.064 189.478ZM418.064 186.65V129.188L240.119 8.70502L418.064 186.65ZM223.881 8.70502L45.936 186.65V129.188L223.881 8.70502ZM232 3.41422L134.933 100.481C192.447 57.9232 271.553 57.9232 329.067 100.481L232 3.41422ZM329.07 363.516L233.053 459.533L232 460.246L230.948 459.534L134.931 363.517C192.446 406.078 271.555 406.077 329.07 363.516ZM117.815 346.122L117.874 346.181C180.921 409.199 283.117 409.189 346.154 346.153C373.964 318.343 389.506 282.911 392.781 246.58L356.407 266.614C353.674 268.12 350.181 267.254 348.595 264.507L343.141 255.06L323.262 274.987C325.592 277.645 326.498 280.617 326.319 283.472C326.125 286.565 324.663 289.446 322.516 291.593C320.369 293.74 317.489 295.201 314.395 295.395C312.792 295.496 311.151 295.254 309.55 294.61C310.194 296.211 310.436 297.851 310.335 299.454C310.141 302.548 308.679 305.428 306.532 307.575C304.385 309.722 301.505 311.184 298.412 311.378C295.362 311.57 292.179 310.523 289.387 307.824C289.575 308.775 289.633 309.727 289.573 310.667C289.377 313.76 287.914 316.638 285.767 318.783C283.62 320.929 280.74 322.389 277.648 322.582C274.599 322.773 271.417 321.726 268.626 319.028C268.814 319.98 268.872 320.935 268.812 321.876C268.614 324.968 267.151 327.845 265.004 329.99C262.857 332.134 259.977 333.594 256.885 333.787C253.768 333.981 250.511 332.882 247.676 330.046L233.021 315.391C232.474 316.288 231.788 317.164 230.949 318.002L218.906 330.046C216.069 332.883 212.811 333.982 209.692 333.786C206.599 333.592 203.719 332.13 201.572 329.983C199.425 327.836 197.963 324.956 197.769 321.862C197.71 320.925 197.768 319.976 197.955 319.029C195.163 321.727 191.981 322.773 188.931 322.582C185.838 322.388 182.957 320.926 180.81 318.779C178.663 316.632 177.202 313.752 177.008 310.658C176.949 309.721 177.007 308.772 177.194 307.825C174.402 310.523 171.219 311.57 168.17 311.378C165.076 311.184 162.196 309.722 160.049 307.575C157.902 305.428 156.44 302.548 156.246 299.454C156.145 297.851 156.387 296.211 157.031 294.61C155.43 295.254 153.79 295.496 152.187 295.395C149.093 295.201 146.213 293.74 144.066 291.593C141.919 289.446 140.457 286.565 140.263 283.472C140.087 280.664 140.96 277.744 143.206 275.12L121.696 253.61L115.405 264.507C113.819 267.254 110.326 268.12 107.593 266.614L71.218 246.58C74.4917 282.897 90.0243 318.316 117.815 346.122ZM71.0306 244.194L108.557 264.862C110.382 265.868 112.657 265.266 113.673 263.507L154.797 192.278C155.768 190.596 155.122 188.499 153.319 187.105L96.9412 143.516C77.0421 173.82 68.4083 209.349 71.0306 244.194ZM122.731 251.817L144.588 273.674L159.757 258.505C162.594 255.668 165.851 254.569 168.97 254.765C172.064 254.959 174.944 256.42 177.091 258.567C179.238 260.714 180.7 263.595 180.894 266.688C180.953 267.625 180.895 268.575 180.708 269.522C183.499 266.824 186.682 265.777 189.731 265.968C192.825 266.162 195.705 267.624 197.852 269.771C199.999 271.918 201.461 274.798 201.655 277.892C201.756 279.495 201.514 281.136 200.87 282.737C202.471 282.093 204.111 281.851 205.715 281.952C208.808 282.146 211.688 283.607 213.836 285.754C215.983 287.901 217.444 290.781 217.638 293.875C217.724 295.243 217.561 296.639 217.111 298.013C218.965 297.099 220.89 296.748 222.765 296.866C225.859 297.06 228.739 298.522 230.886 300.669C232.661 302.444 233.968 304.72 234.477 307.203L269.558 225.167H248.873L245.051 227.373C233.918 233.801 219.554 229.953 213.128 218.819L212.805 218.26C210.637 214.503 211.933 209.66 215.691 207.492L231.291 198.485L227.724 196.425C226.585 195.768 225.112 195.269 223.922 195.269C223.898 195.269 223.875 195.268 223.852 195.267H155.381L122.731 251.817ZM156.536 193.267C158.156 190.445 156.853 187.309 154.542 185.523L98.0466 141.842C103.757 133.378 110.357 125.336 117.846 117.846C180.892 54.8016 283.108 54.8016 346.154 117.846C353.644 125.336 360.243 133.378 365.953 141.842L309.457 185.523C307.146 187.31 305.843 190.447 307.466 193.269H242.66C241.405 193.269 240.216 193.566 239.16 194.093C238.717 194.25 238.28 194.449 237.857 194.693L233.29 197.33L228.724 194.693C227.425 193.943 225.664 193.303 224.049 193.27V193.267H156.536ZM367.059 143.516L310.681 187.105C308.878 188.498 308.232 190.596 309.203 192.278L310.054 193.752C310.061 193.763 310.067 193.774 310.074 193.786L344.201 252.896C344.215 252.919 344.229 252.942 344.241 252.965L350.327 263.507C351.343 265.266 353.616 265.868 355.443 264.862L392.969 244.194C395.592 209.349 386.957 173.82 367.059 143.516ZM342.105 253.267L308.908 195.767L272.578 224.258L321.87 273.55L342.105 253.267ZM271.411 225.919L321.164 275.672C323.613 278.121 324.481 280.826 324.323 283.346C324.163 285.893 322.95 288.33 321.102 290.178C319.253 292.027 316.816 293.24 314.27 293.399C311.749 293.558 309.045 292.69 306.595 290.241L281.945 265.591C281.555 265.2 280.922 265.2 280.531 265.591C280.14 265.981 280.14 266.615 280.531 267.005L305.181 291.655L305.193 291.667C307.633 294.113 308.497 296.812 308.339 299.329C308.179 301.875 306.967 304.312 305.118 306.161C303.269 308.01 300.832 309.222 298.286 309.382C295.766 309.54 293.061 308.673 290.612 306.224L285.845 301.456L285.137 302.162L285.844 301.455L265.963 281.574C265.573 281.183 264.939 281.183 264.549 281.574C264.158 281.964 264.158 282.598 264.549 282.988L284.429 302.868C286.873 305.317 287.737 308.021 287.577 310.541C287.416 313.086 286.202 315.521 284.353 317.369C282.505 319.216 280.068 320.427 277.523 320.586C275.003 320.744 272.3 319.876 269.851 317.428L249.98 297.557C249.59 297.166 248.956 297.166 248.566 297.557C248.175 297.947 248.175 298.581 248.566 298.971L263.673 314.078C266.114 316.527 266.977 319.229 266.816 321.749C266.653 324.293 265.439 326.728 263.59 328.575C261.742 330.421 259.306 331.632 256.761 331.791C254.241 331.948 251.538 331.08 249.09 328.632L233.959 313.501L271.411 225.919ZM232.074 312.824C232.591 311.511 232.773 310.189 232.693 308.914C232.533 306.368 231.321 303.931 229.472 302.083C227.623 300.234 225.186 299.022 222.64 298.862C220.119 298.704 217.415 299.571 214.966 302.02L213.921 303.065L213.898 303.088L202.839 314.148C200.454 316.575 199.609 319.245 199.765 321.737C199.925 324.283 201.137 326.72 202.986 328.569C204.835 330.417 207.272 331.63 209.818 331.79C212.339 331.948 215.043 331.081 217.492 328.632L229.535 316.588C230.585 315.538 231.345 314.441 231.857 313.331L232.074 312.824ZM201.42 312.738L196.731 317.428C194.282 319.877 191.577 320.744 189.057 320.586C186.51 320.426 184.073 319.213 182.225 317.365C180.376 315.516 179.163 313.079 179.004 310.533C178.847 308.042 179.693 305.371 182.077 302.945L197.915 287.106C200.364 284.657 203.069 283.789 205.589 283.948C208.136 284.107 210.573 285.32 212.421 287.168C214.27 289.017 215.483 291.454 215.642 294C215.801 296.521 214.933 299.225 212.484 301.674L201.509 312.649C201.479 312.679 201.45 312.708 201.42 312.738ZM180.748 301.445C180.717 301.476 180.686 301.507 180.655 301.539L175.97 306.224C173.521 308.673 170.816 309.54 168.295 309.382C165.749 309.222 163.312 308.01 161.463 306.161C159.614 304.312 158.402 301.875 158.242 299.329C158.084 296.808 158.951 294.104 161.4 291.655L177.154 275.902C177.19 275.867 177.225 275.831 177.26 275.795L181.932 271.123C184.381 268.674 187.085 267.806 189.606 267.964C192.152 268.124 194.589 269.337 196.438 271.185C198.287 273.034 199.499 275.471 199.659 278.017C199.818 280.538 198.95 283.242 196.501 285.692L180.748 301.445ZM175.839 274.388C178.212 271.965 179.054 269.3 178.898 266.814C178.738 264.267 177.525 261.83 175.677 259.982C173.828 258.133 171.391 256.92 168.845 256.761C166.324 256.602 163.62 257.47 161.171 259.919L146.002 275.088C146.002 275.088 145.48 275.795 144.625 276.539C142.781 278.75 142.12 281.12 142.26 283.346C142.419 285.893 143.632 288.33 145.48 290.178C147.329 292.027 149.766 293.24 152.312 293.399C154.832 293.557 157.537 292.69 159.986 290.241L175.839 274.388ZM270.728 223.167L306.302 195.269H242.66C241.705 195.269 240.805 195.499 240.006 195.906C239.965 195.927 239.922 195.945 239.879 195.96C239.529 196.081 239.187 196.235 238.857 196.425L216.691 209.224C216.691 209.224 212.406 212.088 214.537 217.26C218.719 223.73 224.103 228.294 232.704 228.432C238.626 228.527 242.226 226.417 244.905 224.847C246.117 224.136 247.14 223.536 248.105 223.301C248.187 223.281 248.254 223.256 248.316 223.234C248.414 223.198 248.498 223.167 248.605 223.167H270.728Z"/>
</svg>
