<svg viewBox="0 0 462 462" xmlns="http://www.w3.org/2000/svg">
<path fill-rule="evenodd" clip-rule="evenodd" d="M230.856 0.0336054C231.174 -0.0194823 231.499 0.0845374 231.727 0.312895L461.707 230.293C462.098 230.683 462.098 231.317 461.707 231.707L231.707 461.707C231.52 461.895 231.265 462 231 462C230.735 462 230.48 461.895 230.293 461.707L0.292893 231.707C-0.0976311 231.317 -0.0976311 230.683 0.292893 230.293L230.265 0.320895C230.412 0.173514 230.602 0.0758679 230.808 0.0416054L230.856 0.0336054ZM231 2.41421L133.933 99.4813C191.447 56.9232 270.553 56.9232 328.067 99.4814L231 2.41421ZM362.519 133.933C405.078 191.448 405.077 270.556 362.516 328.069L459.586 231L362.519 133.933ZM328.07 362.516C270.555 405.077 191.446 405.078 133.931 362.517L230.869 459.454L230.89 459.452C230.973 459.441 231.055 459.441 231.135 459.451L328.07 362.516ZM116.815 345.122L116.874 345.181C179.921 408.199 282.117 408.189 345.154 345.153C408.198 282.108 408.198 179.892 345.154 116.846C282.108 53.8016 179.892 53.8016 116.846 116.846C53.8116 179.882 53.8007 282.074 116.815 345.122C116.815 345.122 116.815 345.122 116.815 345.122ZM99.4828 328.069L2.41421 231L99.4811 133.933C56.9222 191.448 56.9224 270.555 99.4828 328.069ZM289.54 121.632C261.14 121.632 238.326 144.446 238.326 172.846C238.326 185.994 243.313 199.137 253.281 209.105C265.166 220.989 281.775 240.408 289.54 252.929C297.305 240.409 313.914 220.989 325.799 209.105C335.767 199.137 340.755 185.994 340.755 172.846C340.755 144.446 317.94 121.632 289.54 121.632ZM287.764 253.859C280.09 241.533 263.672 222.323 251.867 210.519L252.574 209.812L251.867 210.519C241.505 200.157 236.326 186.498 236.326 172.846C236.326 143.342 260.036 119.632 289.54 119.632C319.044 119.632 342.755 143.342 342.755 172.846C342.755 186.498 337.575 200.157 327.213 210.519C314.914 222.817 297.61 243.152 290.401 255.367C290.221 255.672 289.894 255.859 289.54 255.859H230.103C224.713 255.859 220.742 257.886 218.108 260.873C215.457 263.878 214.11 267.916 214.11 271.986C214.11 276.057 215.458 280.095 218.108 283.1C220.742 286.087 224.713 288.114 230.103 288.114H257.305C263.244 288.114 267.77 290.369 270.8 293.805C273.814 297.222 275.298 301.748 275.298 306.241C275.298 310.734 273.814 315.26 270.8 318.677C267.77 322.113 263.244 324.368 257.305 324.368H157.46C157.106 324.368 156.779 324.181 156.599 323.876C149.39 311.661 132.086 291.326 119.787 279.027C109.425 268.665 104.246 255.007 104.246 241.355C104.246 211.851 127.956 188.14 157.46 188.14C186.964 188.14 210.674 211.851 210.674 241.355C210.674 255.007 205.495 268.665 195.133 279.027C183.328 290.832 166.91 310.042 159.236 322.368H257.305C262.695 322.368 266.666 320.341 269.3 317.354C271.951 314.349 273.298 310.312 273.298 306.241C273.298 302.17 271.951 298.133 269.3 295.128C266.666 292.141 262.695 290.114 257.305 290.114H230.103C224.165 290.114 219.639 287.859 216.608 284.423C213.595 281.006 212.11 276.479 212.11 271.987C212.11 267.494 213.594 262.967 216.608 259.55C219.638 256.114 224.164 253.859 230.103 253.859H287.764ZM157.46 321.438C149.695 308.917 133.086 289.498 121.201 277.613C111.233 267.645 106.246 254.503 106.246 241.355C106.246 212.955 129.06 190.14 157.46 190.14C185.86 190.14 208.674 212.955 208.674 241.355C208.674 254.503 203.687 267.645 193.719 277.613C181.834 289.498 165.225 308.917 157.46 321.438ZM289.54 156.326C280.416 156.326 273.02 163.722 273.02 172.846C273.02 181.97 280.416 189.366 289.54 189.366C298.664 189.366 306.06 181.97 306.06 172.846C306.06 163.722 298.664 156.326 289.54 156.326ZM271.02 172.846C271.02 162.618 279.312 154.326 289.54 154.326C299.768 154.326 308.06 162.618 308.06 172.846C308.06 183.074 299.768 191.366 289.54 191.366C279.312 191.366 271.02 183.074 271.02 172.846ZM157.46 224.835C148.336 224.835 140.94 232.231 140.94 241.355C140.94 250.479 148.336 257.875 157.46 257.875C166.584 257.875 173.98 250.479 173.98 241.355C173.98 232.231 166.584 224.835 157.46 224.835ZM138.94 241.355C138.94 231.127 147.232 222.835 157.46 222.835C167.688 222.835 175.98 231.127 175.98 241.355C175.98 251.583 167.688 259.875 157.46 259.875C147.232 259.875 138.94 251.583 138.94 241.355Z"/>
</svg>
