<svg viewBox="0 0 462 462" xmlns="http://www.w3.org/2000/svg">
<path fill-rule="evenodd" clip-rule="evenodd" d="M230.439 0.17195C230.778 -0.0573168 231.222 -0.0573168 231.561 0.17195L418.625 126.829C418.899 127.015 419.064 127.325 419.064 127.657V333.796C419.064 334.128 418.899 334.438 418.625 334.624L231.575 461.272C231.444 461.361 231.294 461.417 231.138 461.436L231.114 461.439C230.873 461.469 230.63 461.411 230.429 461.275L43.3754 334.624C43.1006 334.438 42.936 334.128 42.936 333.796V127.657C42.936 127.325 43.1006 127.015 43.3754 126.829L230.439 0.17195ZM231 2.20766L417.064 128.188V333.265L231 459.246L44.936 333.265V128.188L231 2.20766Z"/>
</svg>
