<svg viewBox="0 0 462 462" xmlns="http://www.w3.org/2000/svg">
<path fill-rule="evenodd" clip-rule="evenodd" d="M231.679 0.320824C231.289 -0.0696182 230.655 -0.0695877 230.265 0.320915L0.292969 230.293C-0.0976562 230.683 -0.0976562 231.317 0.292969 231.707L230.292 461.707C230.682 462.098 231.316 462.098 231.706 461.707L461.707 231.707C461.895 231.52 462 231.265 462 231C462 230.735 461.895 230.48 461.707 230.293L330.099 98.717L344.584 84.2321C344.772 84.0445 344.877 83.7902 344.877 83.525V75.394C344.877 75.1288 344.772 74.8744 344.584 74.6869L336.452 66.5549C336.265 66.3673 336.01 66.262 335.745 66.262H327.613C327.348 66.262 327.094 66.3673 326.906 66.5549L312.42 81.0418L231.679 0.320824ZM230.972 2.44213L311.005 82.4561L307.126 86.3356C252.39 57.5098 184.736 61.8882 133.929 99.4847L230.972 2.44213ZM116.846 116.847C167.95 65.7433 244.79 56.0698 305.645 87.8171L245.589 147.873C245.401 148.06 245.296 148.315 245.296 148.58V180.667L229.752 165.123C229.564 164.935 229.31 164.83 229.045 164.83C228.78 164.83 228.525 164.935 228.338 165.123L195.811 197.65C195.42 198.04 195.42 198.674 195.811 199.064L203.236 206.489L93.7148 316.01C87.9521 306.721 83.2207 296.975 79.5205 286.936L88.24 278.216L93.6318 283.608C94.0225 283.999 94.6555 283.999 95.0461 283.608L119.441 259.213C119.629 259.026 119.734 258.771 119.734 258.506C119.734 258.241 119.629 257.986 119.441 257.799L108.95 247.308H130.931C131.196 247.308 131.451 247.203 131.638 247.015L168.971 209.682C169.159 209.495 169.264 209.24 169.264 208.975V202.877C169.264 202.612 169.159 202.357 168.971 202.17L162.872 196.071C162.685 195.883 162.43 195.778 162.165 195.778H157.067V190.68C157.067 190.415 156.962 190.16 156.774 189.973L150.675 183.874C150.488 183.686 150.233 183.581 149.968 183.581L144.87 183.58L144.869 178.482C144.869 178.217 144.764 177.962 144.576 177.775L138.477 171.676C138.29 171.488 138.035 171.383 137.77 171.383H134.086L156.774 148.695C156.962 148.508 157.067 148.253 157.067 147.988V141.889C157.067 141.624 156.962 141.369 156.774 141.182L150.675 135.084C150.488 134.896 150.233 134.791 149.968 134.791H143.87C143.605 134.791 143.35 134.896 143.163 135.084L82.1738 196.072C81.9673 196.279 81.8699 196.553 81.8821 196.824V220.24L71.0095 209.367C75.5596 175.528 90.8379 142.855 116.846 116.847ZM247.296 148.994V182.667L252.46 187.83L262.292 187.819C266.591 187.269 270.747 185.345 274.05 182.043C281.972 174.119 281.972 161.275 274.05 153.352C273.659 152.962 273.659 152.328 274.05 151.938C274.44 151.547 275.073 151.547 275.464 151.938L287.369 163.843H294.672L326.613 131.902V124.599L319.067 117.053L311.764 117.052L291.727 137.089C291.403 137.414 290.899 137.476 290.505 137.239L270.846 125.444L247.296 148.994ZM278.249 213.62L254.458 189.827L262.357 189.819C262.384 189.819 262.41 189.818 262.436 189.816C262.451 189.815 262.466 189.813 262.48 189.811C267.226 189.219 271.82 187.1 275.464 183.457C281.837 177.084 283.543 167.812 280.584 159.886L286.248 165.55C286.436 165.738 286.69 165.843 286.955 165.843H295.086C295.351 165.843 295.605 165.738 295.793 165.55L302.218 159.125V164.843C302.218 165.108 302.323 165.363 302.511 165.55L310.643 173.681C310.831 173.869 311.085 173.974 311.35 173.974H318.481V181.106C318.481 181.371 318.586 181.626 318.774 181.813L326.906 189.945C327.094 190.133 327.348 190.238 327.613 190.238L333.331 190.237L309.948 213.62H278.249ZM304.218 164.429V157.125L328.027 133.316H335.33L342.876 140.862V148.165L319.067 171.974H311.764L304.218 164.429ZM335.744 131.316H328.613V124.185C328.613 123.92 328.508 123.665 328.32 123.478L320.188 115.346C320 115.158 319.746 115.053 319.481 115.053L313.764 115.052L327.362 101.454C333.568 106.082 339.517 111.211 345.153 116.847C408.198 179.892 408.198 282.108 345.153 345.154C320.497 369.809 289.853 384.822 257.903 390.193L283.077 365.019L288.469 370.41C288.859 370.801 289.493 370.801 289.883 370.41L314.278 346.015C314.466 345.828 314.571 345.573 314.571 345.308C314.571 345.043 314.466 344.788 314.278 344.601L303.787 334.11H325.769C326.034 334.11 326.289 334.005 326.476 333.817L363.809 296.485C363.997 296.298 364.102 296.043 364.102 295.778V289.679C364.102 289.414 363.997 289.159 363.809 288.972L357.709 282.874C357.521 282.686 357.267 282.581 357.002 282.581L351.904 282.58V277.482C351.904 277.217 351.799 276.962 351.611 276.775L345.512 270.676C345.324 270.488 345.07 270.383 344.805 270.383H339.707V265.284C339.707 265.019 339.602 264.764 339.414 264.577L333.315 258.478C333.127 258.29 332.873 258.185 332.608 258.185H328.923L351.611 235.497C351.799 235.31 351.904 235.055 351.904 234.79V228.692C351.904 228.427 351.799 228.172 351.611 227.985L345.513 221.886C345.326 221.698 345.071 221.593 344.806 221.593H338.707C338.442 221.593 338.188 221.698 338 221.886L277.012 282.874C276.824 283.061 276.719 283.316 276.719 283.581V307.042L265.488 295.812C265.098 295.421 264.464 295.421 264.074 295.812L239.679 320.206C239.491 320.393 239.386 320.648 239.386 320.913C239.386 321.178 239.491 321.433 239.679 321.62L245.071 327.012L186.01 386.073C171.163 381.78 156.811 375.316 143.454 366.679L253.44 256.693L260.865 264.117C261.255 264.508 261.889 264.508 262.279 264.117L294.806 231.59C294.994 231.403 295.099 231.148 295.099 230.883C295.099 230.618 294.994 230.363 294.806 230.176L280.249 215.62H310.362C310.627 215.62 310.882 215.515 311.069 215.327L360.847 165.549C361.035 165.362 361.14 165.107 361.14 164.842L361.139 156.711C361.139 156.446 361.034 156.191 360.846 156.004L352.715 147.872C352.528 147.684 352.273 147.579 352.008 147.579H344.876V140.448C344.876 140.183 344.771 139.928 344.583 139.741L336.451 131.609C336.264 131.421 336.009 131.316 335.744 131.316ZM362.517 328.069C405.056 270.583 405.077 191.526 362.581 134.019L459.586 231L362.517 328.069ZM255.302 392.631C281.1 388.773 306.152 378.735 328.068 362.518L230.999 459.586L133.928 362.514C149.885 374.323 167.506 382.857 185.866 388.113C185.908 388.133 185.951 388.149 185.995 388.163C186.052 388.18 186.111 388.193 186.17 388.2C208.579 394.568 232.081 396.06 255.001 392.676C255.103 392.676 255.205 392.661 255.302 392.631ZM116.874 345.181L116.844 345.152L116.815 345.122C108.339 336.641 101.003 327.452 94.8074 317.746L204.65 207.903L252.026 255.279L141.746 365.559C132.961 359.718 124.622 352.925 116.874 345.181ZM77.4587 287.122C82.7107 301.519 90.053 315.326 99.4849 328.071L2.41431 231L99.4836 133.93C82.6909 156.624 72.5232 182.679 68.9817 209.443C68.9553 209.537 68.9429 209.633 68.9441 209.73C65.5664 235.607 68.3809 262.138 77.3879 286.928C77.4045 286.994 77.4282 287.059 77.4587 287.122ZM78.7708 284.857C70.4817 261.375 67.7886 236.358 70.6919 211.878L82.1672 223.353C82.3489 223.539 82.6021 223.654 82.8821 223.654C83.4343 223.654 83.8821 223.206 83.8821 222.654V197.192L144.284 136.791H149.554L155.067 142.303V147.574L130.965 171.676C130.679 171.962 130.593 172.392 130.748 172.766C130.903 173.139 131.268 173.383 131.672 173.383H137.356L142.869 178.896L142.87 184.58C142.87 185.132 143.318 185.58 143.87 185.58L149.554 185.581L155.067 191.094V196.778C155.067 197.33 155.515 197.778 156.067 197.778H161.751L167.264 203.291V208.561L130.517 245.308H106.536C106.132 245.308 105.767 245.552 105.612 245.925C105.457 246.299 105.543 246.729 105.829 247.015L117.32 258.506L94.3391 281.487L88.947 276.095C88.5566 275.704 87.9233 275.704 87.533 276.095L87.5305 276.097L78.7708 284.857ZM254.546 390.721C232.467 393.959 209.846 392.616 188.217 386.694L247.192 327.719C247.38 327.532 247.485 327.277 247.485 327.012C247.485 326.747 247.38 326.492 247.192 326.305L241.8 320.913L264.781 297.933L276.996 310.147L277.004 310.155C277.186 310.341 277.439 310.456 277.719 310.456C278.271 310.456 278.719 310.008 278.719 309.456V283.995L339.121 223.593H344.392L349.904 229.106V234.376L325.802 258.478C325.516 258.764 325.43 259.194 325.585 259.568C325.74 259.941 326.104 260.185 326.509 260.185H332.194L337.707 265.698V271.383C337.707 271.935 338.155 272.383 338.707 272.383H344.391L349.904 277.896V283.58C349.904 284.132 350.352 284.58 350.904 284.58L356.588 284.581L362.102 290.093V295.364L325.355 332.11H301.373C300.969 332.11 300.604 332.354 300.449 332.727C300.294 333.101 300.38 333.531 300.666 333.817L312.157 345.308L289.176 368.289L283.784 362.898C283.394 362.507 282.76 362.507 282.37 362.898L254.546 390.721ZM245.308 245.732L276.421 214.62L245.589 183.788L229.045 167.244L197.932 198.357L245.308 245.732ZM277.835 216.034L246.722 247.146L261.572 261.996L292.685 230.883L277.835 216.034ZM320.481 173.388L344.29 149.579H351.594L359.139 157.125L359.14 164.428L335.331 188.237L328.027 188.238L320.481 180.692V173.388ZM342.871 75.809V83.1116L290.859 135.124L272.297 123.987L328.021 68.2628H335.324L342.871 75.809Z"/>
</svg>
