<svg viewBox="0 0 462 462" xmlns="http://www.w3.org/2000/svg">
<path fill-rule="evenodd" clip-rule="evenodd" d="M230.831 0.0379462C231.145 -0.0223737 231.484 0.0692716 231.727 0.312882L461.707 230.293C462.098 230.683 462.098 231.317 461.707 231.707L231.707 461.707C231.52 461.895 231.265 462 231 462C230.735 462 230.48 461.895 230.293 461.707L127.511 358.925L119.509 367.798L118.766 367.128L119.509 367.798C118.195 369.254 116.683 370.406 115.047 371.265C115.006 371.335 114.955 371.402 114.894 371.462C114.664 371.692 114.35 371.787 114.051 371.746C107.553 374.611 99.4501 373.12 94.1649 367.835L94.872 367.128L94.1649 367.835C87.238 360.908 86.8274 349.143 94.2023 342.491L94.872 343.234L94.2023 342.491L103.075 334.49L0.292893 231.707C-0.0976311 231.317 -0.0976311 230.683 0.292893 230.293L230.265 0.320882C230.424 0.161622 230.624 0.0673105 230.831 0.0379462ZM231 2.4142L133.933 99.4813C191.448 56.9225 270.556 56.9232 328.069 99.4835L231 2.4142ZM323.258 98.4885C260.305 54.5496 173.024 60.6688 116.846 116.846C57.8898 175.802 54.0707 269.013 105.38 332.411L210.243 237.843C181.16 201.817 183.356 148.908 216.831 115.432C245.631 86.6319 288.816 80.9841 323.258 98.4885ZM212.327 237.235C183.326 201.983 185.299 149.793 218.245 116.846C253.29 81.8016 310.108 81.8016 345.153 116.846C380.198 151.892 380.198 208.709 345.153 243.755C312.207 276.701 260.017 278.674 224.766 249.674C224.742 249.65 224.717 249.627 224.691 249.605C222.472 247.776 220.32 245.829 218.245 243.755C216.172 241.68 214.224 239.527 212.394 237.309C212.373 237.283 212.35 237.258 212.327 237.235ZM216.831 245.169C216.831 245.169 216.831 245.169 216.831 245.169C218.7 247.038 220.629 248.809 222.613 250.483L212.431 261.773L200.227 249.568L211.517 239.387C213.191 241.371 214.962 243.3 216.831 245.169ZM198.74 250.91L195.612 253.73L208.27 266.388L211.09 263.26L198.74 250.91ZM206.929 267.875L194.125 255.071L105.955 334.586C105.945 334.595 105.934 334.605 105.924 334.614L105.207 335.26C105.2 335.267 105.192 335.274 105.185 335.28L96.3236 343.271L118.729 365.676L126.72 356.815C126.726 356.808 126.733 356.8 126.74 356.793L127.385 356.077C127.395 356.066 127.405 356.055 127.415 356.045L206.929 267.875ZM129.589 356.62L224.157 251.757C260.182 280.84 313.092 278.644 346.567 245.169C375.368 216.368 381.016 173.184 363.511 138.742C407.45 201.696 401.331 288.976 345.153 345.153C286.198 404.109 192.987 407.929 129.589 356.62ZM133.904 362.49C191.423 405.074 270.548 405.084 328.072 362.513L231.135 459.451C231.057 459.442 230.977 459.441 230.896 459.451L230.871 459.454C230.87 459.454 230.869 459.454 230.869 459.454L133.904 362.49ZM362.514 328.072L459.586 231L362.516 133.93C405.078 191.446 405.077 270.557 362.514 328.072ZM117.365 367.141L94.859 344.635C93.9447 345.579 93.1882 346.625 92.5868 347.741L114.259 369.413C115.375 368.812 116.421 368.055 117.365 367.141ZM112.303 370.285L91.7144 349.697C89.7157 355.248 91.0923 361.934 95.5791 366.421C100.066 370.907 106.752 372.283 112.303 370.285ZM99.5097 328.096C56.9275 270.579 56.9154 191.458 99.4806 133.934L2.41421 231L99.5097 328.096ZM339.654 122.346C307.646 90.3386 255.753 90.3386 223.745 122.346C191.738 154.354 191.738 206.247 223.745 238.255C255.753 270.262 307.646 270.262 339.654 238.255C371.661 206.247 371.661 154.354 339.654 122.346ZM222.331 120.932C255.119 88.1434 308.28 88.1434 341.068 120.932C373.857 153.72 373.857 206.881 341.068 239.669C308.28 272.458 255.119 272.458 222.331 239.669C189.542 206.881 189.542 153.72 222.331 120.932ZM254.104 116.327C247.01 119.614 243.08 123.954 243.08 128.399C243.08 132.845 247.01 137.185 254.105 140.471C261.115 143.719 270.87 145.755 281.699 145.755C292.529 145.755 302.284 143.719 309.294 140.471C316.389 137.185 320.319 132.845 320.319 128.399C320.319 123.954 316.389 119.614 309.294 116.327C302.284 113.08 292.529 111.044 281.699 111.044C270.87 111.044 261.115 113.08 254.104 116.327ZM253.264 114.513C260.593 111.117 270.647 109.044 281.699 109.044C292.752 109.044 302.806 111.117 310.135 114.513C317.38 117.869 322.319 122.707 322.319 128.399C322.319 134.091 317.38 138.929 310.135 142.286C302.806 145.682 292.752 147.755 281.699 147.755C270.647 147.755 260.593 145.682 253.264 142.286C246.019 138.929 241.08 134.091 241.08 128.399C241.08 122.707 246.019 117.869 253.264 114.513Z"/>
</svg>
