<svg viewBox="0 0 462 462" xmlns="http://www.w3.org/2000/svg">
<path fill-rule="evenodd" clip-rule="evenodd" d="M230.856 0.0336054C231.174 -0.0194823 231.499 0.0845374 231.727 0.312895L461.707 230.293C462.098 230.683 462.098 231.317 461.707 231.707L231.707 461.707C231.52 461.895 231.265 462 231 462C230.735 462 230.48 461.895 230.293 461.707L0.292893 231.707C-0.0976311 231.317 -0.0976311 230.683 0.292893 230.293L230.265 0.320895C230.412 0.173514 230.602 0.0758679 230.808 0.0416054L230.856 0.0336054ZM231 2.41421L133.933 99.4813C191.447 56.9232 270.553 56.9232 328.067 99.4814L231 2.41421ZM362.519 133.933C405.078 191.448 405.077 270.556 362.516 328.069L459.586 231L362.519 133.933ZM328.07 362.516C270.555 405.077 191.446 405.078 133.931 362.517L230.869 459.454L230.89 459.452C230.973 459.441 231.055 459.441 231.135 459.451L328.07 362.516ZM116.815 345.122L116.874 345.181C179.921 408.199 282.117 408.189 345.154 345.153C408.198 282.108 408.198 179.892 345.154 116.846C282.108 53.8016 179.892 53.8016 116.846 116.846C53.8116 179.882 53.8009 282.075 116.815 345.122C116.815 345.122 116.815 345.122 116.815 345.122ZM99.4828 328.069L2.41421 231L99.4811 133.933C56.9222 191.448 56.9224 270.555 99.4828 328.069ZM167.482 122.306C150.22 131.308 138.937 144.679 138.937 162.369C138.937 165.875 139.525 175.292 140.59 187.332C149.333 187.481 158.061 189.603 164.708 193.749C171.61 198.053 176.312 204.578 176.312 213.296V259.244C178.19 258.246 180.187 257.321 182.283 256.468C195.623 251.038 213.339 248.344 231 248.344C248.661 248.344 266.377 251.038 279.717 256.468C281.813 257.321 283.81 258.246 285.687 259.244V213.296C285.687 204.578 290.389 198.053 297.291 193.749C303.938 189.603 312.666 187.481 321.409 187.332C322.474 175.291 323.063 165.875 323.063 162.369C323.063 144.679 311.78 131.308 294.518 122.306C277.251 113.301 254.156 108.769 231 108.769C207.844 108.769 184.749 113.301 167.482 122.306ZM323.417 187.332C324.472 175.382 325.063 165.958 325.063 162.369C325.063 143.659 313.08 129.73 295.443 120.532C277.812 111.337 254.376 106.769 231 106.769C207.624 106.769 184.188 111.337 166.557 120.532C148.92 129.73 136.937 143.659 136.937 162.369C136.937 165.958 137.528 175.382 138.582 187.332C129.907 187.484 121.263 189.58 114.666 193.687C107.761 197.986 103.062 204.526 103.062 213.296C103.062 226.671 113.671 237.568 126.934 238.031L138.822 327.543C139.527 332.848 143.265 337.546 148.948 337.546H157.752V339.388C157.752 341.503 159.479 343.23 161.594 343.23H172.47C174.587 343.23 176.312 341.503 176.312 339.388V337.546H285.687V339.388C285.687 341.503 287.414 343.23 289.529 343.23H300.405C302.522 343.23 304.247 341.503 304.247 339.388V337.546H313.052C318.734 337.546 322.473 332.848 323.177 327.543L335.065 238.031C348.328 237.568 358.937 226.671 358.937 213.296C358.937 204.526 354.238 197.986 347.333 193.687C340.736 189.58 332.092 187.484 323.417 187.332ZM322.287 189.323C322.314 189.324 322.341 189.324 322.368 189.323C331.119 189.318 339.807 191.357 346.276 195.385C352.73 199.403 356.937 205.363 356.937 213.296C356.937 225.861 346.752 236.046 334.187 236.046C333.686 236.046 333.262 236.417 333.196 236.914L321.195 327.279C320.577 331.936 317.418 335.546 313.052 335.546H303.247C302.695 335.546 302.247 335.994 302.247 336.546V339.388C302.247 340.399 301.416 341.23 300.405 341.23H289.529C288.518 341.23 287.687 340.399 287.687 339.388V297.138C295.822 296.618 302.313 289.804 302.313 281.544C302.313 272.615 296.574 265.586 287.687 260.362V213.296C287.687 205.42 291.892 199.472 298.349 195.446C304.826 191.406 313.526 189.341 322.287 189.323ZM286.067 261.731C286.145 261.793 286.232 261.843 286.326 261.88C295.074 266.921 300.313 273.508 300.313 281.544C300.313 289.036 294.179 295.17 286.687 295.17H175.313C167.821 295.17 161.687 289.036 161.687 281.544C161.687 273.508 166.927 266.92 175.676 261.879C175.768 261.843 175.853 261.794 175.93 261.733C178.097 260.502 180.474 259.364 183.037 258.32C196.064 253.018 213.504 250.344 231 250.344C248.496 250.344 265.936 253.018 278.963 258.32C281.525 259.363 283.901 260.501 286.067 261.731ZM174.312 260.362V213.296C174.312 205.42 170.107 199.472 163.65 195.446C157.173 191.406 148.473 189.341 139.712 189.323C139.685 189.324 139.658 189.324 139.631 189.323C130.88 189.318 122.192 191.357 115.723 195.385C109.269 199.403 105.062 205.363 105.062 213.296C105.062 225.861 115.247 236.046 127.812 236.046C128.313 236.046 128.737 236.417 128.803 236.914L140.804 327.279C141.423 331.936 144.581 335.546 148.948 335.546H158.752C159.304 335.546 159.752 335.994 159.752 336.546V339.388C159.752 340.399 160.583 341.23 161.594 341.23H172.47C173.481 341.23 174.312 340.399 174.312 339.388V297.138C166.178 296.618 159.687 289.804 159.687 281.544C159.687 272.616 165.426 265.586 174.312 260.362ZM176.312 297.17V335.546H285.687V297.17H176.312ZM195.707 149.061C196.097 148.67 196.731 148.67 197.121 149.061L200.126 152.066L203.132 149.061C203.522 148.67 204.156 148.67 204.546 149.061C204.937 149.451 204.937 150.085 204.546 150.475L201.541 153.48L204.546 156.486C204.937 156.876 204.937 157.51 204.546 157.9C204.156 158.291 203.522 158.291 203.132 157.9L200.126 154.895L197.121 157.9C196.731 158.291 196.097 158.291 195.707 157.9C195.316 157.51 195.316 156.876 195.707 156.486L198.712 153.48L195.707 150.475C195.316 150.085 195.316 149.451 195.707 149.061ZM253.836 149.061C254.226 148.67 254.86 148.67 255.25 149.061L258.255 152.066L261.26 149.061C261.65 148.67 262.284 148.67 262.674 149.061C263.065 149.451 263.065 150.085 262.674 150.475L259.669 153.48L262.674 156.486C263.065 156.876 263.065 157.51 262.674 157.9C262.284 158.291 261.65 158.291 261.26 157.9L258.255 154.895L255.25 157.9C254.86 158.291 254.226 158.291 253.836 157.9C253.445 157.51 253.445 156.876 253.836 156.486L256.841 153.48L253.836 150.475C253.445 150.085 253.445 149.451 253.836 149.061ZM224.772 183.374C225.162 182.983 225.796 182.983 226.186 183.374L229.191 186.379L232.196 183.374C232.586 182.983 233.22 182.983 233.61 183.374C234.001 183.764 234.001 184.398 233.61 184.788L230.605 187.793L233.61 190.798C234.001 191.188 234.001 191.822 233.61 192.212C233.22 192.603 232.586 192.603 232.196 192.212L229.191 189.207L226.186 192.212C225.796 192.603 225.162 192.603 224.772 192.212C224.381 191.822 224.381 191.188 224.772 190.798L227.777 187.793L224.772 184.788C224.381 184.398 224.381 183.764 224.772 183.374ZM195.707 217.686C196.097 217.295 196.731 217.295 197.121 217.686L200.126 220.691L203.132 217.686C203.522 217.295 204.156 217.295 204.546 217.686C204.937 218.076 204.937 218.71 204.546 219.1L201.541 222.105L204.546 225.11C204.937 225.5 204.937 226.134 204.546 226.524C204.156 226.915 203.522 226.915 203.132 226.524L200.126 223.519L197.121 226.524C196.731 226.915 196.097 226.915 195.707 226.524C195.316 226.134 195.316 225.5 195.707 225.11L198.712 222.105L195.707 219.1C195.316 218.71 195.316 218.076 195.707 217.686ZM253.836 217.686C254.226 217.295 254.86 217.295 255.25 217.686L258.255 220.691L261.26 217.686C261.65 217.295 262.284 217.295 262.674 217.686C263.065 218.076 263.065 218.71 262.674 219.1L259.669 222.105L262.674 225.11C263.065 225.5 263.065 226.134 262.674 226.524C262.284 226.915 261.65 226.915 261.26 226.524L258.255 223.519L255.25 226.524C254.86 226.915 254.226 226.915 253.836 226.524C253.445 226.134 253.445 225.5 253.836 225.11L256.841 222.105L253.836 219.1C253.445 218.71 253.445 218.076 253.836 217.686Z"/>
</svg>
