<svg viewBox="0 0 24 17" fill="none" xmlns="http://www.w3.org/2000/svg">
<path d="M20.485 0C22.657 2.171 24 5.171 24 8.485C24 11.799 22.657 14.798 20.485 16.97L19.071 15.556C20.881 13.746 22 11.247 22 8.485C22 5.723 20.881 3.223 19.071 1.413L20.485 0ZM3.514 16.97C1.343 14.798 0 11.799 0 8.485C0 5.171 1.343 2.171 3.514 0L4.928 1.413C3.118 3.223 1.999 5.723 1.999 8.485C1.999 11.247 3.118 13.746 4.928 15.556L3.514 16.97Z" />
<path d="M17.818 2.666C19.307 4.156 20.228 6.213 20.228 8.485C20.228 10.757 19.307 12.814 17.818 14.303L16.404 12.889C17.531 11.762 18.228 10.205 18.228 8.485C18.228 6.765 17.531 5.207 16.404 4.08L17.818 2.666ZM6.181 14.303C4.692 12.814 3.771 10.757 3.771 8.485C3.771 6.213 4.692 4.156 6.181 2.666L7.595 4.08C6.468 5.207 5.771 6.765 5.771 8.485C5.771 10.205 6.468 11.762 7.595 12.889L6.181 14.303Z" />
<path d="M15.182 5.303C15.996 6.117 16.5 7.242 16.5 8.485C16.5 9.728 15.996 10.852 15.182 11.667L13.768 10.253C14.22 9.801 14.5 9.176 14.5 8.485C14.5 7.794 14.22 7.169 13.768 6.717L15.182 5.303ZM8.818 11.667C8.003 10.852 7.5 9.728 7.5 8.485C7.5 7.242 8.003 6.117 8.818 5.303L10.232 6.717C9.779 7.169 9.5 7.794 9.5 8.485C9.5 9.176 9.779 9.801 10.232 10.253L8.818 11.667Z" />
</svg>
