<svg viewBox="0 0 48 48" fill="none" xmlns="http://www.w3.org/2000/svg">
<path d="M24 0C37.255 0 48 10.745 48 24C48 37.255 37.255 48 24 48C10.745 48 0 37.255 0 24C0 10.745 10.745 0 24 0ZM33.764 24.688C32.877 23.732 31.583 23.099 30.192 22.79V22.661C31.185 22.235 32.052 21.567 32.634 20.659C33.216 19.751 33.523 18.716 33.523 17.551C33.523 16.547 33.32 15.661 32.899 14.892C32.477 14.123 31.842 13.509 30.988 13.05C30.197 12.623 29.353 12.33 28.451 12.196C27.548 12.063 26.223 11.983 24.472 11.983H15.891V36.017H25.593C27.249 36.017 28.613 35.79 29.686 35.49C30.759 35.191 31.745 34.651 32.642 33.946C33.4 33.359 34.003 32.597 34.452 31.699C34.9 30.803 35.109 29.751 35.109 28.566C35.109 26.943 34.65 25.644 33.764 24.688ZM21.85 16.353H22.422C23.489 16.353 24.293 16.375 24.832 16.391C25.372 16.407 25.839 16.508 26.234 16.679C26.651 16.861 26.958 17.158 27.155 17.563C27.353 17.97 27.452 18.367 27.452 18.751C27.452 19.274 27.361 19.735 27.179 20.13C26.997 20.525 26.667 20.835 26.186 21.059C25.748 21.262 25.324 21.419 24.912 21.44C24.501 21.462 23.783 21.517 22.758 21.517H21.85V16.353ZM28.581 29.99C28.33 30.445 27.932 30.788 27.388 31.024C26.768 31.29 26.159 31.514 25.561 31.536C24.963 31.557 23.884 31.647 22.325 31.647H21.85V25.49H23.11C24.178 25.49 25.03 25.509 25.665 25.525C26.301 25.541 26.8 25.624 27.163 25.763C27.761 25.977 28.21 26.295 28.509 26.711C28.808 27.128 28.957 27.706 28.957 28.443C28.957 29.019 28.831 29.536 28.581 29.99Z" />
</svg>
