<svg viewBox="0 0 226 226" xmlns="http://www.w3.org/2000/svg">

<path fill-rule="evenodd" clip-rule="evenodd" d="M112.838 0.0248086C113.158 -0.0309457 113.486 0.0728006 113.716 0.302913L225.707 112.293C225.895 112.48 226 112.735 226 113C226 113.265 225.895 113.52 225.707 113.707L113.707 225.707C113.52 225.895 113.265 226 113 226C112.735 226 112.48 225.895 112.293 225.707L0.292893 113.707C-0.0976311 113.317 -0.0976311 112.683 0.292893 112.293L112.279 0.306916C112.425 0.161235 112.612 0.0641058 112.815 0.0288087L112.838 0.0248086ZM113 2.41473L70.0391 45.3751C96.167 28.7417 129.831 28.7413 155.959 45.374L113 2.41473ZM180.626 70.0403L223.586 113L180.625 155.961C197.258 129.833 197.259 96.1684 180.626 70.0403ZM155.962 180.624C129.833 197.258 96.1677 197.259 70.0392 180.625L113 223.586L155.962 180.624ZM57.7593 168.21L57.7756 168.226L57.788 168.238C88.2884 198.725 137.729 198.72 168.225 168.225C198.725 137.725 198.725 88.2746 168.225 57.7751C137.725 27.2747 88.2746 27.2747 57.7751 57.7751C27.2817 88.2676 27.2746 137.702 57.7531 168.204C57.7551 168.206 57.7572 168.208 57.7593 168.21ZM45.3737 155.959L2.41421 113L45.375 70.0392C28.7415 96.1671 28.7412 129.831 45.3737 155.959ZM57.0792 68.196H83.4838C82.9726 61.3515 77.2573 55.957 70.281 55.957C63.3057 55.957 57.5904 61.3514 57.0792 68.196ZM77.8339 55.957C82.4262 58.5822 85.521 63.5277 85.521 69.196V156.387C85.5794 156.514 85.612 156.655 85.612 156.804C85.612 164.116 91.5393 170.043 98.851 170.043C106.163 170.043 112.091 164.116 112.091 156.804C112.091 156.252 112.539 155.804 113.091 155.804H140.479V69.196C140.479 61.9173 134.52 55.957 127.24 55.957H77.8339ZM142.479 155.804V69.196C142.479 60.8128 135.624 53.957 127.24 53.957H70.281C61.8647 53.957 55.042 60.7797 55.042 69.196C55.042 69.7483 55.4897 70.196 56.042 70.196H83.521V156.804C83.521 165.187 90.3757 172.043 98.76 172.043H155.718C164.134 172.043 170.958 165.22 170.958 156.804C170.958 156.252 170.51 155.804 169.958 155.804H142.479ZM106.403 170.043H155.718C162.693 170.043 168.41 164.649 168.921 157.804H114.059C113.719 163.051 110.724 167.573 106.403 170.043ZM92.101 83.134C92.101 82.5817 92.5487 82.134 93.101 82.134H134.964C135.516 82.134 135.964 82.5817 135.964 83.134C135.964 83.6863 135.516 84.134 134.964 84.134H93.101C92.5487 84.134 92.101 83.6863 92.101 83.134ZM92.101 92.385C92.101 91.8327 92.5487 91.385 93.101 91.385H134.964C135.516 91.385 135.964 91.8327 135.964 92.385C135.964 92.9373 135.516 93.385 134.964 93.385H93.101C92.5487 93.385 92.101 92.9373 92.101 92.385ZM92.101 101.637C92.101 101.085 92.5487 100.637 93.101 100.637H132.42C132.972 100.637 133.42 101.085 133.42 101.637C133.42 102.189 132.972 102.637 132.42 102.637H93.101C92.5487 102.637 92.101 102.189 92.101 101.637ZM92.101 110.889C92.101 110.337 92.5487 109.889 93.101 109.889H134.964C135.516 109.889 135.964 110.337 135.964 110.889C135.964 111.441 135.516 111.889 134.964 111.889H93.101C92.5487 111.889 92.101 111.441 92.101 110.889ZM92.101 120.14C92.101 119.588 92.5487 119.14 93.101 119.14H128.257C128.809 119.14 129.257 119.588 129.257 120.14C129.257 120.692 128.809 121.14 128.257 121.14H93.101C92.5487 121.14 92.101 120.692 92.101 120.14ZM92.101 129.392C92.101 128.84 92.5487 128.392 93.101 128.392H134.964C135.516 128.392 135.964 128.84 135.964 129.392C135.964 129.944 135.516 130.392 134.964 130.392H93.101C92.5487 130.392 92.101 129.944 92.101 129.392ZM92.101 138.644C92.101 138.092 92.5487 137.644 93.101 137.644H113.686C114.238 137.644 114.686 138.092 114.686 138.644C114.686 139.196 114.238 139.644 113.686 139.644H93.101C92.5487 139.644 92.101 139.196 92.101 138.644Z"/>

</svg>
