<svg width="226" height="226" viewBox="0 0 226 226" fill="none" xmlns="http://www.w3.org/2000/svg">
<g clip-path="url(#clip0)">
<path fill-rule="evenodd" clip-rule="evenodd" d="M109 52C109.552 52 110 52.4477 110 53V64.1782C110.984 64.0605 111.985 64 113 64C114.015 64 115.016 64.0605 116 64.1782V53C116 52.4477 116.448 52 117 52C117.552 52 118 52.4477 118 53V64.5001C129.411 66.8166 138 76.9059 138 89C138 89.5523 137.552 90 137 90C136.448 90 136 89.5523 136 89C136 78.0153 128.298 68.8281 118 66.545V112.501C129.411 114.817 138 124.905 138 137C138 149.095 129.411 159.184 118 161.5V173C118 173.552 117.552 174 117 174C116.448 174 116 173.552 116 173V161.822C115.016 161.939 114.015 162 113 162C111.985 162 110.984 161.939 110 161.822V173C110 173.552 109.552 174 109 174C108.448 174 108 173.552 108 173V161.5C96.5894 159.183 88 149.095 88 137C88 136.448 88.4478 136 89 136C89.5522 136 90 136.448 90 137C90 147.985 97.7021 157.172 108 159.455V113.501C96.5894 111.184 88 101.095 88 89C88 76.906 96.5894 66.8168 108 64.5002V53C108 52.4477 108.448 52 109 52ZM108 66.5451C97.7021 68.8283 90 78.0154 90 89C90 99.9855 97.7021 109.173 108 111.456V66.5451ZM110 113.823V159.806C110.982 159.934 111.983 160 113 160C114.017 160 115.018 159.934 116 159.806V114.195C115.018 114.067 114.017 114.001 113 114.001C111.985 114.001 110.984 113.94 110 113.823ZM116 112.179C115.016 112.062 114.015 112.001 113 112.001C111.983 112.001 110.982 111.935 110 111.807V66.1939C110.982 66.066 111.983 66 113 66C114.017 66 115.018 66.066 116 66.1939V112.179ZM118 114.546V159.455C128.298 157.172 136 147.986 136 137C136 126.014 128.298 116.829 118 114.546Z"/>
<path fill-rule="evenodd" clip-rule="evenodd" d="M112.839 0.0248081C113.159 -0.0309475 113.487 0.0728123 113.717 0.302915L225.707 112.293C226.098 112.683 226.098 113.317 225.707 113.707L171.62 167.795C170.388 169.112 169.112 170.388 167.795 171.62L113.707 225.707C113.52 225.895 113.265 226 113 226C112.735 226 112.48 225.895 112.293 225.707L0.292847 113.707C0.105347 113.52 0 113.265 0 113C0 112.735 0.105347 112.48 0.292847 112.293L112.28 0.306913C112.426 0.161222 112.613 0.0641147 112.816 0.0288059L112.839 0.0248081ZM166.405 170.181C165.992 170.567 165.575 170.948 165.154 171.325H159.741C160.04 170.995 160.336 170.66 160.631 170.322C160.845 170.077 161.058 169.829 161.27 169.579C165.445 164.665 168.963 159.271 171.825 153.55H179.922C177.119 158.171 173.85 162.477 170.181 166.405L166.405 170.181ZM181.044 155.541L223.586 113L180.702 70.1159C188.615 82.5354 193.2 97.2823 193.2 113.1C193.2 128.688 188.747 143.236 181.044 155.541ZM156.084 45.4983L113 2.41473L69.5576 45.8572C80.3135 38.878 92.8492 34.4095 106.335 33.2817C110.597 32.7929 114.891 32.7742 119.156 33.2255C132.678 34.2363 145.264 38.6042 156.084 45.4983ZM142.273 40.6309C149.674 43.6128 156.512 47.6955 162.586 52.676H157.868C153.064 47.7351 147.809 43.7201 142.273 40.6309ZM106.531 35.2724C108.697 35.092 110.888 35 113.1 35C115.077 35 117.038 35.0735 118.978 35.2179C132.547 36.6618 145.81 43.0325 156.685 54.33C156.708 54.3566 156.733 54.3819 156.758 54.4059C157.776 55.4658 158.772 56.569 159.746 57.7154C163.925 62.6351 167.43 68.0491 170.261 73.798C170.285 73.8613 170.314 73.9215 170.35 73.978C173.355 80.1173 175.593 86.6358 177.066 93.34C177.067 93.3563 177.07 93.3724 177.072 93.3884C177.076 93.414 177.082 93.4392 177.088 93.4641C177.094 93.4893 177.101 93.514 177.109 93.5384C178.492 99.905 179.184 106.437 179.187 112.97C179.186 112.98 179.186 112.991 179.186 113.001C179.186 113.012 179.186 113.022 179.187 113.032C179.184 119.562 178.492 126.091 177.11 132.455C177.087 132.523 177.071 132.595 177.064 132.669C175.591 139.37 173.353 145.885 170.35 152.022C170.333 152.049 170.318 152.076 170.303 152.105C170.288 152.136 170.274 152.169 170.261 152.202C167.43 157.951 163.925 163.365 159.746 168.285C158.769 169.435 157.769 170.542 156.748 171.605L156.695 171.66C131.752 197.581 94.2438 197.58 69.3021 171.657L69.2551 171.608C68.2388 170.55 67.2433 169.448 66.2704 168.304C49.3081 147.805 43.3148 119.467 48.8201 93.7048C48.8978 93.5626 48.942 93.3995 48.942 93.226C48.942 93.2021 48.9412 93.1783 48.9395 93.1548C50.3899 86.5729 52.5934 80.1644 55.5586 74.1039C55.6685 73.977 55.7468 73.8221 55.7817 73.6514C58.5996 67.9813 62.0883 62.6212 66.2552 57.7154C67.2328 56.5644 68.2333 55.457 69.2549 54.3932L69.3024 54.3438C80.0487 43.1742 93.1283 36.8171 106.531 35.2724ZM83.2026 40.927C76.08 43.8808 69.4891 47.8583 63.6135 52.676H68.1328C72.785 47.8915 77.8594 43.9751 83.2026 40.927ZM45.8575 69.557L2.41418 113L45.4983 156.084C44.908 155.158 44.3362 154.218 43.7834 153.267C43.6527 153.139 43.5566 152.976 43.5109 152.793C40.0602 146.757 37.3724 140.228 35.5787 133.338C35.4691 133.178 35.405 132.984 35.405 132.775C35.405 132.742 35.4066 132.71 35.4097 132.678C33.8621 126.517 33.0282 120.073 33.0007 113.439C32.9363 113.307 32.9 113.158 32.9 113.001C32.9 112.843 32.9366 112.694 33.0018 112.561C33.0453 105.97 33.8849 99.5673 35.4292 93.4453C35.4135 93.3747 35.405 93.3013 35.405 93.226C35.405 92.9711 35.5004 92.7385 35.6573 92.5619C37.4454 85.8017 40.0952 79.3919 43.4821 73.457C43.4821 73.4547 43.4821 73.4524 43.4821 73.45C43.4821 73.0763 43.687 72.7505 43.9906 72.5789C44.5911 71.5569 45.2136 70.5494 45.8575 69.557ZM46.3995 72.45C50.4567 65.8071 55.4783 59.8176 61.2697 54.676H66.2588C65.7437 55.2464 65.2343 55.8279 64.7308 56.4207C60.5325 61.3635 57.0065 66.7532 54.1454 72.45H46.3995ZM45.2186 74.45C42.0593 79.9869 39.5577 85.9477 37.8207 92.226H47.0967C48.4813 86.1069 50.5048 80.1369 53.174 74.45H45.2186ZM37.2959 94.226C35.8805 99.9293 35.092 105.88 35.0076 112.001H44.8379C44.8765 106.031 45.4845 100.068 46.668 94.226H37.2959ZM35.0051 114.001C35.0743 120.12 35.8472 126.071 37.2468 131.775H46.8112C45.5918 125.933 44.9348 119.97 44.8463 114.001H35.0051ZM37.7659 133.775C39.4843 140.051 41.9659 146.011 45.1049 151.55H53.3665C50.7109 145.862 48.6703 139.893 47.2517 133.775H37.7659ZM46.2778 153.55C50.3041 160.187 55.2913 166.176 61.0464 171.325H66.2589C65.7476 170.759 65.2419 170.182 64.7421 169.594L64.7336 169.584C60.6401 164.638 57.1703 159.247 54.3314 153.55H46.2778ZM70.1158 180.702C82.5354 188.615 97.2822 193.2 113.1 193.2C128.688 193.2 143.236 188.747 155.541 181.044L113 223.586L70.1158 180.702ZM63.3718 173.325H68.1331C73.1672 178.502 78.6956 182.663 84.524 185.807C76.7954 182.767 69.6686 178.53 63.3718 173.325ZM140.945 186.09C146.969 182.914 152.68 178.659 157.867 173.325H162.828C156.333 178.694 148.956 183.032 140.945 186.09ZM164.93 54.676C170.722 59.8176 175.743 65.8071 179.8 72.45H171.825C168.963 66.7285 165.445 61.3353 161.27 56.4206C160.767 55.8279 160.257 55.2464 159.742 54.676H164.93ZM180.981 74.45H172.793C175.446 80.1245 177.471 86.097 178.866 92.226H188.379C186.642 85.9477 184.141 79.9869 180.981 74.45ZM188.904 94.226H179.298C180.49 100.064 181.118 106.029 181.181 112.001H191.192C191.108 105.88 190.319 99.9293 188.904 94.226ZM191.195 114.001H181.181C181.118 119.972 180.49 125.937 179.297 131.775H188.953C190.353 126.071 191.126 120.12 191.195 114.001ZM188.434 133.775H178.866C177.47 139.904 175.446 145.876 172.793 151.55H181.095C184.234 146.011 186.716 140.051 188.434 133.775Z"/>
</g>
<defs>
<clipPath id="clip0">
<rect width="226" height="226" fill="white"/>
</clipPath>
</defs>
</svg>
