<svg width="226" height="226" viewBox="0 0 226 226" fill="none" xmlns="http://www.w3.org/2000/svg">
<g clip-path="url(#clip0)">
<path fill-rule="evenodd" clip-rule="evenodd" d="M112.881 0.0184162C113.189 -0.0217348 113.498 0.0833803 113.717 0.302912L204.794 91.3802C204.797 91.3832 204.8 91.3862 204.803 91.3892L225.707 112.293C226.098 112.683 226.098 113.317 225.707 113.707L113.707 225.707C113.52 225.895 113.265 226 113 226C112.735 226 112.48 225.895 112.293 225.707L0.292893 113.707C-0.0976311 113.317 -0.0976311 112.683 0.292893 112.293L21.196 91.3898C21.1994 91.3864 21.2028 91.383 21.2062 91.3796L112.28 0.305912C112.436 0.14996 112.639 0.0499389 112.858 0.0214162L112.881 0.0184162ZM22.1754 93.2389L2.41421 113L45.3782 155.964C34.8744 139.464 31.0063 119.959 33.7682 101.245L21.5865 97.1089C21.0635 96.9314 20.7835 96.3635 20.9611 95.8405C21.1387 95.3175 21.7066 95.0375 22.2295 95.2151L34.0897 99.2422C34.1964 98.6272 34.3103 98.0131 34.4315 97.4003L22.1754 93.2389ZM35.9421 95.801C35.9208 95.793 35.899 95.7856 35.877 95.7789L25.0186 92.0921L113.008 62.2211L187.168 87.4017C187.198 87.4134 187.228 87.4237 187.259 87.4325L200.982 92.092L190.113 95.7822C190.098 95.7869 190.084 95.7918 190.07 95.7971L113 121.965L35.9421 95.801ZM36.3424 98.0491C36.2233 98.6627 36.1116 99.2775 36.0073 99.8933L113 126.036L189.994 99.893C189.889 99.2772 189.778 98.6624 189.659 98.0488L113.322 123.968C113.113 124.039 112.887 124.039 112.678 123.968L36.3424 98.0491ZM191.569 97.3999C191.691 98.0128 191.804 98.6269 191.911 99.2419L203.77 95.2151C204.293 95.0375 204.861 95.3175 205.039 95.8405C205.216 96.3635 204.936 96.9314 204.414 97.1089L192.233 101.245C194.994 119.958 191.126 139.463 180.623 155.963L223.586 113L203.825 93.2389L191.569 97.3999ZM200.352 89.766L180.452 69.8661C183.629 74.778 186.281 80.0712 188.312 85.6779L200.352 89.766ZM185.865 84.8472C174.399 55.1931 144.967 34.8941 112.987 34.8995C81.0186 34.9049 51.5948 55.2018 40.1342 84.8485L112.687 60.2181C112.895 60.1473 113.121 60.1473 113.33 60.2181L185.865 84.8472ZM37.688 85.6789L25.6479 89.7663L45.5463 69.8679C42.3695 74.7796 39.7181 80.0725 37.688 85.6789ZM69.4468 45.9674C82.2059 37.6667 97.2952 32.9022 112.987 32.8995C128.689 32.8969 143.788 37.6623 156.554 45.9679L113 2.41423L69.4468 45.9674ZM155.962 180.624C129.833 197.258 96.167 197.258 70.0378 180.624L113 223.586L155.962 180.624ZM57.774 168.224C57.7787 168.229 57.7833 168.233 57.7879 168.238C88.2894 198.724 137.729 198.72 168.225 168.225C186.306 150.144 193.664 125.405 190.307 101.899L164.204 110.762V149.346C164.204 151.84 162.44 153.999 159.804 155.785C157.132 157.596 153.333 159.19 148.734 160.514C139.522 163.166 126.874 164.799 113.001 164.799C99.1274 164.799 86.4789 163.166 77.267 160.514C72.6678 159.19 68.8687 157.596 66.1965 155.786C63.5597 153.999 61.796 151.841 61.796 149.346V110.762L35.6942 101.899C32.3373 125.399 39.6911 150.131 57.7603 168.21C57.7649 168.215 57.7695 168.219 57.774 168.224ZM63.796 111.441V149.346C63.796 150.826 64.8563 152.462 67.3184 154.13C69.7451 155.774 73.3198 157.297 77.8203 158.592C86.8076 161.18 99.2616 162.799 113.001 162.799C126.74 162.799 139.193 161.179 148.18 158.592C152.681 157.296 156.255 155.774 158.682 154.13C161.144 152.461 162.204 150.826 162.204 149.346V111.441L113.322 128.039C113.113 128.11 112.887 128.11 112.678 128.039L63.796 111.441Z"/>
</g>
<defs>
<clipPath id="clip0">
<rect width="226" height="226" fill="white"/>
</clipPath>
</defs>
</svg>
