<svg viewBox="0 0 226 226" xmlns="http://www.w3.org/2000/svg">

<path fill-rule="evenodd" clip-rule="evenodd" d="M112.838 0.0248086C113.158 -0.0309457 113.486 0.0728006 113.716 0.302913L225.707 112.293C225.895 112.48 226 112.735 226 113C226 113.265 225.895 113.52 225.707 113.707L113.707 225.707C113.52 225.895 113.265 226 113 226C112.735 226 112.48 225.895 112.293 225.707L0.292893 113.707C-0.0976311 113.317 -0.0976311 112.683 0.292893 112.293L112.279 0.306916C112.425 0.161235 112.612 0.0641058 112.815 0.0288087L112.838 0.0248086ZM113 2.41473L70.0391 45.3751C96.167 28.7417 129.831 28.7413 155.959 45.374L113 2.41473ZM180.626 70.0403L223.586 113L180.625 155.961C197.258 129.833 197.259 96.1684 180.626 70.0403ZM155.962 180.624C129.833 197.258 96.1677 197.259 70.0392 180.625L113 223.586L155.962 180.624ZM57.7593 168.21L57.7756 168.226L57.788 168.238C88.2884 198.725 137.729 198.72 168.225 168.225C198.725 137.725 198.725 88.2746 168.225 57.7751C137.725 27.2747 88.2746 27.2747 57.7751 57.7751C27.2817 88.2676 27.2746 137.702 57.7531 168.204C57.7551 168.206 57.7572 168.208 57.7593 168.21ZM45.3737 155.959L2.41421 113L45.375 70.0392C28.7415 96.1671 28.7412 129.831 45.3737 155.959ZM157.416 61.5124C130.702 38.4183 90.2828 39.5505 64.9171 64.9171C39.5504 90.2828 38.4173 130.703 61.5123 157.416L105.941 112.988C95.5715 109.941 88 100.357 88 89C88 76.9051 96.5887 66.8164 108 64.5001V53C108 52.4477 108.448 52 109 52C109.552 52 110 52.4477 110 53V64.1782C110.984 64.0605 111.985 64 113 64C114.015 64 115.016 64.0605 116 64.1782V53C116 52.4477 116.448 52 117 52C117.552 52 118 52.4477 118 53V64.5002C127.098 66.3472 134.4 73.1359 136.987 81.9414L157.416 61.5124ZM135.355 83.5741C133.303 75.089 126.545 68.4399 118 66.5452V100.929L135.355 83.5741ZM116 102.929V66.194C115.018 66.066 114.017 66 113 66C111.983 66 110.982 66.066 110 66.1939V108.929L116 102.929ZM108 110.929V66.545C97.7015 68.8279 90 78.0144 90 89C90 99.8323 97.4896 108.916 107.574 111.355L108 110.929ZM63.5029 63.5029C89.876 37.1288 132.055 36.204 159.544 60.7187C159.749 60.9018 159.87 61.1615 159.878 61.4365C159.885 61.7115 159.78 61.9776 159.585 62.1721L62.1721 159.585C61.9776 159.78 61.7115 159.885 61.4365 159.878C61.1615 159.87 60.9018 159.749 60.7187 159.544C36.2029 132.056 37.1289 89.876 63.5029 63.5029C63.5029 63.5029 63.5029 63.5029 63.5029 63.5029ZM164.564 66.1224C164.839 66.1303 165.098 66.2511 165.281 66.4564C189.796 93.9437 188.871 136.124 162.497 162.497C136.132 188.863 93.9476 189.773 66.4578 165.281C66.2523 165.098 66.1313 164.838 66.1234 164.563C66.1155 164.288 66.2213 164.022 66.4159 163.827L108.291 121.952C108.291 121.951 108.292 121.951 108.292 121.951C108.293 121.95 108.293 121.95 108.294 121.949C108.294 121.949 108.294 121.948 108.295 121.948L116.291 113.952C116.292 113.951 116.294 113.949 116.295 113.948L117.403 112.84C117.404 112.839 117.404 112.838 117.405 112.838L163.828 66.4149C164.022 66.2204 164.289 66.1146 164.564 66.1224ZM116 117.071L110 123.071V159.806C110.982 159.934 111.983 160 113 160C114.017 160 115.018 159.934 116 159.806V117.071ZM118 159.455V115.071L118.426 114.645C128.509 117.084 136 126.168 136 137C136 147.986 128.298 157.172 118 159.455ZM118 161.5C129.411 159.184 138 149.095 138 137C138 125.644 130.428 116.059 120.059 113.013L164.488 68.5836C187.582 95.2969 186.45 135.717 161.083 161.083C135.726 186.44 95.3018 187.559 68.585 164.486L89.0125 144.059C91.5996 152.864 98.9017 159.653 108 161.5V173C108 173.552 108.448 174 109 174C109.552 174 110 173.552 110 173V161.822C110.984 161.939 111.985 162 113 162C114.015 162 115.016 161.94 116 161.822V173C116 173.552 116.448 174 117 174C117.552 174 118 173.552 118 173V161.5ZM108 159.455V125.071L90.6453 142.426C92.6972 150.911 99.4548 157.56 108 159.455Z"/>

</svg>
