<svg viewBox="0 0 226 226" xmlns="http://www.w3.org/2000/svg">

<path fill-rule="evenodd" clip-rule="evenodd" d="M112.838 0.0248086C113.158 -0.0309457 113.486 0.0728006 113.716 0.302913L225.707 112.293C225.895 112.48 226 112.735 226 113C226 113.265 225.895 113.52 225.707 113.707L113.707 225.707C113.52 225.895 113.265 226 113 226C112.735 226 112.48 225.895 112.293 225.707L0.292893 113.707C-0.0976311 113.317 -0.0976311 112.683 0.292893 112.293L112.279 0.306916C112.425 0.161235 112.612 0.0641058 112.815 0.0288087L112.838 0.0248086ZM113 2.41473L70.0391 45.3751C96.167 28.7417 129.831 28.7413 155.959 45.374L113 2.41473ZM180.626 70.0403L223.586 113L180.625 155.961C197.258 129.833 197.259 96.1684 180.626 70.0403ZM155.962 180.624C129.833 197.258 96.1677 197.259 70.0392 180.625L113 223.586L155.962 180.624ZM57.7593 168.21L57.7756 168.226L57.788 168.238C88.2884 198.725 137.729 198.72 168.225 168.225C198.725 137.725 198.725 88.2746 168.225 57.7751L168.293 57.7074L168.225 57.7751C137.725 27.2747 88.2746 27.2747 57.7751 57.7751L57.7751 57.7751C27.2817 88.2676 27.2746 137.702 57.7531 168.204C57.7551 168.206 57.7572 168.208 57.7593 168.21ZM45.3737 155.959L2.41421 113L45.375 70.0392C28.7415 96.1671 28.7412 129.831 45.3737 155.959ZM123.19 53.796C102.792 53.796 86.256 70.3313 86.256 90.729V115.031L92.0607 138.613H103.704C111.023 138.613 117.013 132.622 117.013 125.304C117.013 117.986 111.023 111.995 103.704 111.995C103.152 111.995 102.704 111.547 102.704 110.995V91.245C102.704 80.0477 111.861 70.891 123.058 70.891C134.255 70.891 143.412 80.0467 143.412 91.245C143.412 91.7973 142.964 92.245 142.412 92.245C141.86 92.245 141.412 91.7973 141.412 91.245C141.412 81.1513 133.151 72.891 123.058 72.891C112.965 72.891 104.704 81.1523 104.704 91.245V110.028C112.666 110.547 119.013 117.218 119.013 125.304C119.013 133.726 112.127 140.613 103.704 140.613H91.277C90.8168 140.613 90.416 140.299 90.306 139.852L86.256 123.398V141.873C86.256 153.753 95.8863 163.383 107.766 163.383C119.536 163.383 127.402 154.183 129.286 141.724C130.907 131.004 137.564 125.585 144.091 120.272C144.853 119.651 145.614 119.032 146.365 118.406C149.982 115.389 153.403 112.204 155.933 107.923C158.453 103.658 160.124 98.2431 160.124 90.729C160.124 70.3313 143.588 53.796 123.19 53.796ZM84.256 114.46V90.729C84.256 69.2267 101.688 51.796 123.19 51.796C144.692 51.796 162.124 69.2267 162.124 90.729C162.124 98.5639 160.375 104.337 157.655 108.94C154.945 113.526 151.306 116.889 147.646 119.941C146.88 120.58 146.115 121.205 145.357 121.824C138.807 127.171 132.763 132.105 131.264 142.023C129.288 155.091 120.858 165.383 107.766 165.383C94.7817 165.383 84.256 154.857 84.256 141.873V124.594L76.2857 164.579C76.1941 165.038 75.7957 165.372 75.3273 165.383C74.8589 165.393 74.446 165.077 74.334 164.622L68.4243 140.613H55.156C54.6037 140.613 54.156 140.165 54.156 139.613C54.156 139.061 54.6037 138.613 55.156 138.613H69.208C69.6682 138.613 70.069 138.927 70.179 139.374L75.2024 159.782L84.1993 114.648C84.2123 114.582 84.2314 114.52 84.256 114.46Z"/>

</svg>
