<svg width="226" height="226" viewBox="0 0 226 226" fill="none" xmlns="http://www.w3.org/2000/svg">
<g clip-path="url(#clip0)">
<path fill-rule="evenodd" clip-rule="evenodd" d="M112.439 0.171953C112.778 -0.0573176 113.222 -0.0573176 113.561 0.171953L204.653 61.8489C204.927 62.035 205.092 62.3452 205.092 62.677V163.057C205.092 163.389 204.927 163.699 204.653 163.885L113.568 225.557C113.448 225.638 113.313 225.692 113.171 225.715L113.159 225.717C112.906 225.76 112.647 225.703 112.434 225.559L21.3473 163.885C21.0725 163.699 20.908 163.389 20.908 163.057V62.677C20.908 62.3452 21.0725 62.035 21.3473 61.8489L112.439 0.171953ZM113 2.20766L203.092 63.2076V162.526L112.999 223.526L22.908 162.526V63.2076L113 2.20766Z"/>
</g>
<defs>
<clipPath id="clip0">
<rect width="226" height="226" fill="white"/>
</clipPath>
</defs>
</svg>
