<svg width="226" height="226" viewBox="0 0 226 226" fill="none" xmlns="http://www.w3.org/2000/svg">
<g clip-path="url(#clip0)">
<path fill-rule="evenodd" clip-rule="evenodd" d="M112.88 0.0184162C113.188 -0.0217345 113.497 0.0833792 113.716 0.302908L225.707 112.293C225.895 112.48 226 112.735 226 113C226 113.265 225.895 113.52 225.707 113.707L113.706 225.707C113.519 225.895 113.264 226 112.999 226C112.734 226 112.479 225.895 112.292 225.707L0.29289 113.707C-0.09763 113.317 -0.09763 112.683 0.29289 112.293L112.279 0.305915C112.435 0.149961 112.638 0.049939 112.857 0.0214162L112.88 0.0184162ZM112.999 2.41423L70.0387 45.3749C96.1671 28.7415 129.831 28.7414 155.96 45.3745L112.999 2.41423ZM180.625 70.0393C186.086 78.619 189.755 88.0114 191.63 97.6828C192.421 97.5017 193.245 97.406 194.091 97.406C197.129 97.406 199.88 98.6391 201.869 100.628C203.859 102.618 205.092 105.369 205.092 108.407C205.092 108.959 204.644 109.407 204.092 109.407C203.54 109.407 203.092 108.959 203.092 108.407C203.092 105.921 202.085 103.672 200.455 102.042C198.826 100.413 196.577 99.406 194.091 99.406C193.366 99.406 192.661 99.4917 191.986 99.6535C195.213 118.849 191.426 138.994 180.625 155.961L223.586 113L180.625 70.0393ZM155.96 180.625C129.831 197.259 96.165 197.258 70.0366 180.623L112.999 223.586L155.96 180.625ZM57.7593 168.21L57.7756 168.226L57.7879 168.238C88.2884 198.724 137.729 198.72 168.225 168.225C186.703 149.747 193.986 124.312 190.074 100.35C189.202 100.786 188.41 101.359 187.727 102.042L171.636 118.133C171.748 118.78 171.834 119.435 171.895 120.098L186.75 105.242C187.14 104.851 187.774 104.851 188.164 105.242C188.555 105.632 188.555 106.266 188.164 106.656L171.997 122.825C171.774 136.439 160.668 147.407 147 147.407C133.193 147.407 122 136.214 122 122.407C122 117.435 117.971 113.406 113 113.406C108.029 113.406 103.999 117.435 103.999 122.407C103.999 136.214 92.8063 147.407 78.999 147.407C65.3312 147.407 54.2254 136.439 54.0024 122.825L37.8349 106.656C37.4444 106.266 37.4444 105.632 37.8349 105.242C38.2255 104.851 38.8586 104.851 39.2491 105.242L54.1042 120.098C54.1649 119.435 54.2514 118.78 54.3628 118.133L38.2719 102.042C37.5891 101.359 36.7973 100.786 35.9248 100.35C32.0142 124.303 39.2903 149.727 57.7531 168.204C57.7551 168.206 57.7572 168.208 57.7593 168.21ZM34.0128 99.6534C30.7862 118.849 34.5734 138.994 45.3743 155.961L2.4142 113L45.3739 70.0399C39.9123 78.6195 36.2441 88.0117 34.3693 97.6828C33.5779 97.5017 32.754 97.406 31.908 97.406C28.87 97.406 26.1187 98.6391 24.1299 100.628C22.14 102.618 20.908 105.369 20.908 108.407C20.908 108.959 21.3557 109.407 21.908 109.407C22.4603 109.407 22.908 108.959 22.908 108.407C22.908 105.921 23.914 103.672 25.5441 102.042C27.1733 100.413 29.422 99.406 31.908 99.406C32.6328 99.406 33.3376 99.4917 34.0128 99.6534ZM36.2852 98.3119C37.5635 98.867 38.7157 99.6575 39.6861 100.628L54.8763 115.818C57.7674 105.207 67.4721 97.406 78.999 97.406C90.9519 97.406 100.945 105.794 103.414 117.006C105.302 113.663 108.888 111.406 113 111.406C117.112 111.406 120.698 113.663 122.585 117.005C125.054 105.794 135.047 97.406 147 97.406C158.527 97.406 168.232 105.207 171.123 115.818L186.313 100.628C187.283 99.6575 188.435 98.8671 189.714 98.3119C186.884 83.4603 179.721 69.2714 168.225 57.7751C137.724 27.2747 88.2746 27.2747 57.7741 57.7751C46.2778 69.2715 39.1148 83.4603 36.2852 98.3119ZM101.999 122.407C101.999 109.703 91.7017 99.406 78.999 99.406C66.2963 99.406 55.999 109.703 55.999 122.407C55.999 135.11 66.2963 145.407 78.999 145.407C91.7017 145.407 101.999 135.11 101.999 122.407ZM124 122.407C124 135.11 134.297 145.407 147 145.407C159.703 145.407 170 135.11 170 122.407C170 109.703 159.703 99.406 147 99.406C134.297 99.406 124 109.703 124 122.407ZM78.999 103.406C68.5053 103.406 59.999 111.912 59.999 122.407C59.999 132.901 68.5053 141.407 78.999 141.407C89.4928 141.407 98 132.901 98 122.407C98 111.912 89.4927 103.406 78.999 103.406ZM57.999 122.407C57.999 110.808 67.4007 101.406 78.999 101.406C90.5973 101.406 100 110.808 100 122.407C100 134.005 90.5972 143.407 78.999 143.407C67.4007 143.407 57.999 134.005 57.999 122.407ZM147 103.406C136.506 103.406 128 111.912 128 122.407C128 132.901 136.506 141.407 147 141.407C157.494 141.407 166 132.901 166 122.407C166 111.912 157.494 103.406 147 103.406ZM126 122.407C126 110.808 135.402 101.406 147 101.406C158.598 101.406 168 110.808 168 122.407C168 134.005 158.598 143.407 147 143.407C135.402 143.407 126 134.005 126 122.407Z"/>
</g>
<defs>
<clipPath id="clip0">
<rect width="226" height="226" fill="white"/>
</clipPath>
</defs>
</svg>
