<svg width="320" height="60" viewBox="0 0 320 60" fill="none" xmlns="http://www.w3.org/2000/svg">
<rect width="320" height="60" fill="white"/>
<path fill-rule="evenodd" clip-rule="evenodd" d="M187.514 36.732C190.306 38.39 193.168 39.295 196.43 39.314C198.582 39.327 202.697 38.462 202.752 35.702C202.815 32.544 198.807 31.507 196.267 31.261C191.873 30.835 186.92 29.238 187.128 23.996C187.318 19.221 192.367 17.463 196.423 17.463C199.62 17.463 201.884 18.149 204.764 19.439L203.285 22.754C200.856 21.666 199.122 21.106 196.423 21.106C194.587 21.106 190.853 21.69 190.756 24.138C190.643 27.009 194.407 27.398 196.58 27.648C201.253 28.184 206.492 30.247 206.38 35.773C206.278 40.825 200.777 42.968 196.416 42.942C192.481 42.918 189.036 41.863 185.664 39.862L187.514 36.732ZM142.6 30.219C142.6 25.33 146.005 21.214 151.05 21.214C153.734 21.214 155.974 22.397 157.477 24.242L160.277 21.632C158.057 19.161 154.821 17.647 151.05 17.647C143.861 17.647 138.686 23.095 138.686 30.219C138.686 37.385 143.82 42.79 151.05 42.79C154.844 42.79 158.08 41.286 160.293 38.819L157.493 36.209C155.996 38.051 153.758 39.224 151.05 39.224C145.962 39.224 142.6 35.146 142.6 30.219ZM92.06 21.595H99.906C102.676 21.595 104.304 23.195 104.304 25.411C104.304 27.731 102.674 29.013 99.906 29.013H92.06V21.595ZM92.06 38.149V32.372H98.59L104.764 42.34H109.37L102.884 31.956C106.209 31.16 108.149 28.597 108.149 25.273C108.149 20.451 104.672 18.097 100.148 18.097H88.25V33.878L92.06 38.149ZM135.687 30.219C135.687 23.109 130.452 17.647 123.289 17.647C116.1 17.647 110.925 23.095 110.925 30.219C110.925 37.385 116.058 42.79 123.289 42.79C130.494 42.79 135.687 37.37 135.687 30.219ZM114.838 30.219C114.838 25.33 118.243 21.214 123.289 21.214C128.307 21.214 131.774 25.348 131.774 30.219C131.774 35.128 128.35 39.224 123.289 39.224C118.2 39.224 114.838 35.146 114.838 30.219ZM168.475 42.34V30.703L179.903 42.34H185.099L172.076 29.18L183.298 18.097H178.414L168.475 28.002V18.097H164.665V42.34H168.475ZM207.693 21.595H215.693V42.34H219.502V21.595H227.537V18.097H207.693V21.595ZM253.291 30.219C253.291 23.111 248.054 17.647 240.893 17.647C233.705 17.647 228.529 23.097 228.529 30.219C228.529 37.383 233.665 42.79 240.893 42.79C248.094 42.79 253.291 37.367 253.291 30.219ZM232.443 30.219C232.443 25.332 235.848 21.214 240.893 21.214C245.908 21.214 249.377 25.35 249.377 30.219C249.377 35.127 245.952 39.224 240.893 39.224C235.807 39.224 232.443 35.143 232.443 30.219ZM261.059 42.34V24.712L274.842 42.34H278.063V18.097H274.323V35.656L260.643 18.097H257.319V42.34H261.059ZM301.22 42.34V38.842H287.332V31.153H298.277V27.655H287.332V21.595H300.77V18.097H283.523V42.34H301.22ZM18 42.34L33.96 26.684L40.321 28.654L50.246 17.294L60.829 11L73.703 29.694L78.234 26.615L92.259 42.34H87.698L77.404 31.109L65.205 36.594L64.817 35.733L71.004 31.528L65.092 22.827L60.83 26.804L57.403 25.973L54.819 23.07L44.857 27.61L38.429 34.177L37.701 34.039L37.959 31.054L34.718 30.213L18.924 42.34H18ZM31.857 42.214L49.794 37.218L52.502 37.642L58.782 42.34H64.24L51.998 32.847L29.969 42.34L31.857 42.214Z" fill="black"/>
</svg>
